<svg xmlns="http://www.w3.org/2000/svg" viewBox="0 0 1024 1024" role="img" aria-label="Wuhan Foreign Languages School seal"><path transform="translate(0 896) scale(1 -1)" fill="#1f548e" d="M1318 399 1300 389Q1298 389 1296.5 388.0Q1295 387 1295 386Q1295 385 1296.0 384.5Q1297 384 1299 384Q1301 383 1305.5 384.5Q1310 386 1317 389Q1323 392 1323.0 394.5Q1323 397 1318 399ZM1468 603Q1460 601 1452.5 598.5Q1445 596 1438 593Q1431 591 1423.5 588.0Q1416 585 1408 583Q1406 581 1404.5 580.0Q1403 579 1402 577Q1401 576 1402.0 574.0Q1403 572 1405 569Q1410 566 1413.5 562.0Q1417 558 1419 553Q1420 549 1423.0 545.0Q1426 541 1430 538Q1433 541 1435.5 542.0Q1438 543 1440 543Q1443 544 1446.0 544.0Q1449 544 1452 544Q1456 545 1459.0 546.0Q1462 547 1465 548Q1469 549 1472.5 548.5Q1476 548 1480 547Q1482 547 1484.0 548.0Q1486 549 1487 550Q1488 551 1488.0 552.5Q1488 554 1487 556Q1485 562 1483.5 568.0Q1482 574 1481 581Q1480 588 1476.5 593.5Q1473 599 1468 603ZM1458 659H1454Q1443 651 1434.0 645.5Q1425 640 1417 637Q1409 633 1400.0 627.5Q1391 622 1381 615Q1379 613 1378.0 611.5Q1377 610 1378 609Q1379 608 1380.0 607.5Q1381 607 1382 608Q1393 610 1403.0 613.5Q1413 617 1423 620Q1432 623 1442.5 627.0Q1453 631 1463 636Q1464 638 1464.5 640.5Q1465 643 1464 645Q1463 647 1462.0 649.0Q1461 651 1461 653L1458 659ZM1542 731Q1552 734 1561.5 735.0Q1571 736 1580 735Q1589 735 1599.0 731.0Q1609 727 1620 720Q1626 715 1628.0 711.0Q1630 707 1628 703Q1626 700 1622.5 697.0Q1619 694 1613 691Q1609 691 1606.0 690.5Q1603 690 1600 690Q1597 689 1593.5 688.0Q1590 687 1586 685Q1579 688 1572.0 691.5Q1565 695 1558 699Q1551 704 1543.5 709.0Q1536 714 1529 720Q1526 723 1526.5 725.0Q1527 727 1530 729Q1533 730 1536.0 730.5Q1539 731 1542 731ZM1445 723Q1449 727 1450.0 732.0Q1451 737 1451 742Q1450 748 1450.5 753.0Q1451 758 1452 762Q1454 771 1458.5 775.5Q1463 780 1469 781Q1476 781 1480.5 778.0Q1485 775 1487 767Q1489 753 1491.5 740.5Q1494 728 1496 715Q1499 703 1502.0 690.0Q1505 677 1507 662Q1508 658 1509.5 655.5Q1511 653 1513 651Q1516 650 1519.0 650.5Q1522 651 1526 653Q1537 657 1547.0 659.0Q1557 661 1566 661Q1575 661 1585.0 658.0Q1595 655 1606 649Q1610 647 1611.5 645.0Q1613 643 1612 641Q1611 639 1609.0 637.0Q1607 635 1604 634Q1595 632 1586.5 630.0Q1578 628 1570 626Q1562 624 1553.5 621.5Q1545 619 1536 616Q1530 615 1527.0 613.0Q1524 611 1524 608Q1524 605 1524.0 601.5Q1524 598 1524 594Q1524 591 1524.0 587.5Q1524 584 1524 582Q1525 579 1526.0 575.5Q1527 572 1529 568Q1532 555 1536.5 542.0Q1541 529 1546 517Q1551 504 1557.5 491.0Q1564 478 1573 463Q1578 451 1584.0 440.5Q1590 430 1597 421Q1603 412 1612.0 402.0Q1621 392 1632 381Q1637 376 1642.0 374.0Q1647 372 1652 372Q1658 373 1662.5 376.0Q1667 379 1672 385Q1678 392 1682.5 399.5Q1687 407 1690 413Q1693 419 1695.5 426.5Q1698 434 1700 442Q1700 444 1700.0 445.0Q1700 446 1700 447Q1701 448 1701.5 449.0Q1702 450 1704 451Q1706 451 1708.5 450.0Q1711 449 1713 448Q1715 446 1716.5 444.0Q1718 442 1718 438Q1719 431 1719.5 424.5Q1720 418 1720 412Q1719 405 1718.5 398.5Q1718 392 1717 385Q1716 380 1715.5 376.0Q1715 372 1716 369Q1717 365 1717.5 361.5Q1718 358 1718 354Q1717 348 1716.0 342.5Q1715 337 1714 332Q1713 327 1712.5 321.5Q1712 316 1713 310Q1711 300 1707.0 294.5Q1703 289 1697 287Q1691 285 1683.5 285.5Q1676 286 1668 289Q1664 292 1660.0 295.0Q1656 298 1653 300Q1649 303 1645.5 306.5Q1642 310 1639 314Q1612 337 1590.0 361.0Q1568 385 1552 411Q1536 437 1522.5 463.5Q1509 490 1499 516Q1497 520 1495.5 522.5Q1494 525 1493 525Q1491 525 1489.0 524.5Q1487 524 1485 523Q1480 522 1475.0 521.5Q1470 521 1466 521Q1462 521 1457.0 521.0Q1452 521 1446 521Q1444 521 1441.5 520.0Q1439 519 1437 517Q1435 516 1434.5 513.5Q1434 511 1435 507Q1433 501 1431.5 494.0Q1430 487 1429 481Q1428 475 1427.5 467.5Q1427 460 1426 453Q1426 451 1426.5 449.5Q1427 448 1429 448Q1430 447 1431.5 447.0Q1433 447 1436 448Q1439 451 1442.0 453.0Q1445 455 1448 456Q1451 458 1454.0 459.5Q1457 461 1460 462Q1464 463 1467.0 463.0Q1470 463 1473 461Q1475 460 1476.0 456.5Q1477 453 1476 448Q1476 444 1476.0 440.5Q1476 437 1475 434Q1474 431 1471.0 428.0Q1468 425 1463 422Q1456 419 1449.5 415.5Q1443 412 1437 408Q1431 403 1424.5 399.5Q1418 396 1411 393Q1396 386 1382.0 379.0Q1368 372 1355 365Q1342 358 1328.5 351.5Q1315 345 1300 339Q1285 336 1276.0 339.0Q1267 342 1264 351Q1262 361 1265.0 371.0Q1268 381 1277 392Q1284 397 1289.5 401.5Q1295 406 1301 411Q1307 415 1311.5 420.5Q1316 426 1319 432Q1321 442 1322.0 451.0Q1323 460 1322 469Q1321 478 1322.0 487.0Q1323 496 1325 505Q1326 509 1327.5 511.5Q1329 514 1331 515Q1333 516 1335.0 514.5Q1337 513 1340 510Q1345 499 1348.0 488.0Q1351 477 1352 465Q1352 453 1351.0 441.5Q1350 430 1346 418Q1346 418 1345.5 416.5Q1345 415 1345 413Q1345 412 1345.5 410.5Q1346 409 1346 407Q1348 407 1350.0 407.0Q1352 407 1354 408Q1356 409 1358.5 409.5Q1361 410 1363 411Q1367 413 1370.5 415.0Q1374 417 1377 419Q1379 421 1379.5 424.5Q1380 428 1377 432L1364 469Q1364 471 1364.5 473.5Q1365 476 1366 478Q1367 480 1368.5 482.0Q1370 484 1371 486L1386 563Q1386 566 1385.0 567.5Q1384 569 1383 570Q1382 571 1380.0 570.5Q1378 570 1376 569Q1371 568 1366.5 567.0Q1362 566 1357 565Q1353 564 1348.5 562.0Q1344 560 1339 556Q1328 553 1318.0 550.0Q1308 547 1298 543Q1289 540 1279.0 536.5Q1269 533 1258 529Q1247 527 1239.5 530.5Q1232 534 1228 541Q1224 549 1226.5 556.0Q1229 563 1238 571L1248 574Q1255 578 1261.0 580.0Q1267 582 1271 583Q1276 584 1282.0 583.5Q1288 583 1295 581Q1306 585 1316.5 590.5Q1327 596 1338 604Q1348 612 1359.0 621.0Q1370 630 1381 641Q1383 643 1383.5 645.0Q1384 647 1383 648Q1382 650 1380.5 650.5Q1379 651 1376 650L1356 655Q1351 655 1348.0 656.0Q1345 657 1342 659Q1340 662 1338.0 665.0Q1336 668 1333 672Q1327 677 1325.5 682.5Q1324 688 1326 693Q1328 698 1332.5 701.5Q1337 705 1343 706L1363 705Q1374 708 1384.5 711.0Q1395 714 1404 718Q1412 722 1422.5 723.0Q1433 724 1445 723ZM2288 400Q2291 402 2294.0 403.0Q2297 404 2299 403Q2301 403 2304.0 402.5Q2307 402 2311 401L2342 388Q2345 388 2348.5 387.0Q2352 386 2355 385Q2357 384 2359.5 381.0Q2362 378 2364 373Q2374 365 2380.5 357.0Q2387 349 2389 342Q2392 334 2393.0 325.5Q2394 317 2393 309Q2393 305 2391.5 303.0Q2390 301 2387 300Q2385 300 2382.5 300.0Q2380 300 2377 301Q2364 308 2352.0 316.0Q2340 324 2328 332Q2317 341 2305.0 352.0Q2293 363 2280 376Q2276 381 2275.0 384.0Q2274 387 2276 389Q2278 391 2281.0 393.5Q2284 396 2288 400ZM2125 404Q2132 406 2138.5 407.5Q2145 409 2151 412Q2157 414 2162.5 416.5Q2168 419 2175 423Q2176 426 2176.5 427.5Q2177 429 2176 430Q2176 431 2174.0 431.0Q2172 431 2170 430Q2164 428 2158.5 425.5Q2153 423 2148 420Q2143 417 2137.0 413.0Q2131 409 2125 404ZM2113 447Q2113 445 2113.0 444.5Q2113 444 2113 443Q2112 443 2111.5 443.5Q2111 444 2110 445Q2110 446 2110.0 446.5Q2110 447 2110 448Q2111 448 2111.5 448.0Q2112 448 2113 447ZM2196 516Q2194 517 2193.0 517.0Q2192 517 2191 517Q2190 516 2189.5 515.5Q2189 515 2188 515Q2184 511 2179.0 507.5Q2174 504 2168 501Q2163 498 2159.0 494.0Q2155 490 2153 486Q2154 484 2155.0 481.0Q2156 478 2157 476Q2159 473 2161.0 470.0Q2163 467 2165 465Q2166 464 2166.5 463.5Q2167 463 2168 463Q2169 463 2169.5 464.0Q2170 465 2170 466Q2168 476 2171.0 482.5Q2174 489 2181 491Q2188 492 2192.0 497.5Q2196 503 2197 512L2196 516ZM2280 555 2270 554Q2262 549 2259.5 544.5Q2257 540 2260 537Q2263 534 2267.5 537.0Q2272 540 2280 549V555ZM2199 561 2194 560Q2189 557 2184.0 554.5Q2179 552 2174 549Q2169 546 2164.0 542.0Q2159 538 2153 532Q2152 531 2151.0 529.0Q2150 527 2151 525Q2151 523 2152.5 522.0Q2154 521 2157 522Q2160 523 2163.5 525.0Q2167 527 2171 530Q2174 533 2177.5 535.0Q2181 537 2185 538Q2188 540 2190.5 542.0Q2193 544 2197 545Q2200 547 2202.0 549.0Q2204 551 2204 554Q2205 556 2204.5 558.0Q2204 560 2203 560Q2202 561 2201.0 561.5Q2200 562 2199 561ZM1957 598Q1958 599 1959.0 600.5Q1960 602 1961 603Q1963 604 1964.5 603.5Q1966 603 1967 602Q1972 598 1975.0 594.5Q1978 591 1979 586Q1981 582 1982.0 577.0Q1983 572 1984 567Q1989 558 1993.5 549.0Q1998 540 2001 532Q2004 523 2006.5 514.0Q2009 505 2010 495Q2011 485 2010.5 476.0Q2010 467 2008 458Q2007 450 2005.5 440.5Q2004 431 2003 420Q2003 418 2003.5 416.5Q2004 415 2006 415Q2007 414 2008.5 414.5Q2010 415 2011 418Q2021 432 2030.0 445.0Q2039 458 2047 471Q2054 483 2062.5 496.5Q2071 510 2081 524Q2082 526 2083.5 527.0Q2085 528 2086 528Q2087 527 2087.5 525.5Q2088 524 2088 522Q2085 509 2081.5 496.5Q2078 484 2074 473Q2070 461 2063.5 448.5Q2057 436 2048 422L2035 374Q2030 365 2026.0 357.0Q2022 349 2018 342Q2015 334 2012.5 325.5Q2010 317 2008 307Q2006 302 2003.0 300.0Q2000 298 1996 297Q1993 297 1989.0 299.0Q1985 301 1982 305Q1976 314 1971.5 324.0Q1967 334 1964 345Q1961 356 1961.5 366.0Q1962 376 1967 385Q1969 388 1970.5 391.5Q1972 395 1973 398Q1974 401 1974.5 404.5Q1975 408 1976 411Q1978 425 1979.0 437.5Q1980 450 1980 462Q1979 473 1976.0 486.0Q1973 499 1967 512Q1964 520 1960.5 527.0Q1957 534 1955 540Q1952 546 1950.0 553.0Q1948 560 1947 567Q1947 571 1947.5 575.0Q1948 579 1949 583Q1949 586 1951.0 590.0Q1953 594 1957 598ZM2224 636 2214 631Q2212 629 2211.0 626.5Q2210 624 2210 622Q2210 619 2210.0 616.5Q2210 614 2209 611Q2210 609 2211.0 608.5Q2212 608 2213 608Q2214 608 2215.5 609.0Q2217 610 2219 611Q2220 614 2222.0 618.0Q2224 622 2227 627Q2229 632 2228.0 634.0Q2227 636 2224 636ZM2301 721Q2299 720 2297.5 718.5Q2296 717 2294 714Q2293 710 2292.0 707.5Q2291 705 2290 703Q2293 697 2297.0 696.5Q2301 696 2307 700Q2312 704 2311.0 709.0Q2310 714 2301 721ZM2283 779Q2289 781 2294.5 779.5Q2300 778 2304 773Q2308 769 2309.0 764.0Q2310 759 2308 753L2306 745Q2310 733 2316.0 726.5Q2322 720 2328 718Q2335 716 2343.0 715.0Q2351 714 2361 715Q2364 714 2366.5 713.0Q2369 712 2370 710Q2371 708 2370.0 705.0Q2369 702 2367 698Q2355 692 2344.5 686.0Q2334 680 2325 676Q2315 671 2304.0 667.0Q2293 663 2282 659Q2278 657 2275.0 653.5Q2272 650 2269 645Q2266 640 2266.0 636.5Q2266 633 2268 630Q2270 630 2272.5 629.5Q2275 629 2277 630Q2280 630 2282.5 630.0Q2285 630 2288 630Q2294 629 2297.5 627.0Q2301 625 2303 622Q2305 619 2303.5 615.5Q2302 612 2296 608Q2293 605 2289.5 603.0Q2286 601 2283 599Q2281 598 2277.5 596.5Q2274 595 2271 593Q2267 591 2265.5 588.0Q2264 585 2264 581Q2264 578 2266.5 577.0Q2269 576 2274 577L2288 579Q2294 580 2299.0 578.5Q2304 577 2307 574Q2310 572 2310.5 566.5Q2311 561 2309 554Q2305 549 2303.0 545.5Q2301 542 2300 539Q2300 537 2299.5 534.0Q2299 531 2297 526Q2292 522 2286.5 518.5Q2281 515 2276 513Q2270 511 2264.5 508.0Q2259 505 2253 501Q2250 499 2249.0 497.0Q2248 495 2249 493Q2251 492 2253.0 491.5Q2255 491 2258 492Q2263 496 2268.0 499.5Q2273 503 2277 505Q2282 507 2287.0 508.5Q2292 510 2297 510Q2302 509 2305.0 507.5Q2308 506 2309 504Q2310 501 2308.5 498.0Q2307 495 2303 491Q2296 487 2289.0 483.5Q2282 480 2276 477Q2269 474 2262.5 471.0Q2256 468 2249 465Q2244 462 2242.0 458.5Q2240 455 2240 451Q2240 448 2242.5 446.5Q2245 445 2251 447L2297 462Q2299 463 2301.0 463.5Q2303 464 2304 465Q2305 466 2305.0 467.5Q2305 469 2303 472Q2302 474 2301.0 476.0Q2300 478 2301 479Q2302 481 2303.5 481.5Q2305 482 2308 481Q2311 482 2313.0 481.5Q2315 481 2318 480Q2320 480 2323.0 478.5Q2326 477 2330 475Q2336 476 2341.5 476.5Q2347 477 2353 476Q2358 476 2364.0 474.5Q2370 473 2377 470Q2380 470 2381.5 469.0Q2383 468 2384 466Q2384 465 2383.0 463.0Q2382 461 2380 459Q2363 452 2347.5 447.0Q2332 442 2317 438Q2302 434 2286.5 428.5Q2271 423 2255 417Q2252 417 2249.0 416.5Q2246 416 2243 415Q2240 414 2237.5 412.0Q2235 410 2233 406L2228 399Q2227 393 2225.0 387.5Q2223 382 2221 377Q2219 372 2217.5 367.0Q2216 362 2214 356Q2204 337 2191.5 322.5Q2179 308 2165 298Q2150 289 2134.5 286.5Q2119 284 2102 288Q2093 291 2088.5 296.0Q2084 301 2085 307Q2085 314 2089.5 318.0Q2094 322 2102 324Q2108 325 2115.5 329.0Q2123 333 2132 341Q2141 348 2147.0 355.5Q2153 363 2157 370Q2158 373 2158.0 375.0Q2158 377 2158 378Q2157 379 2155.5 379.0Q2154 379 2151 379Q2142 377 2133.5 374.5Q2125 372 2117 369Q2110 366 2102.0 363.0Q2094 360 2085 357Q2075 356 2068.5 359.5Q2062 363 2060 370Q2058 377 2061.5 383.0Q2065 389 2073 394L2115 411Q2118 413 2119.0 414.5Q2120 416 2121 417Q2121 419 2120.5 420.5Q2120 422 2117 424Q2115 426 2114.5 428.5Q2114 431 2115 433Q2116 435 2117.5 437.0Q2119 439 2121 441Q2124 444 2126.0 446.5Q2128 449 2129 451Q2130 452 2129.0 455.0Q2128 458 2125 462Q2122 465 2119.5 468.5Q2117 472 2115 475Q2112 478 2111.0 481.0Q2110 484 2110 487Q2108 493 2107.5 498.5Q2107 504 2108 510Q2109 515 2113.0 520.5Q2117 526 2123 531Q2126 533 2126.5 534.5Q2127 536 2127 538Q2127 541 2126.5 543.0Q2126 545 2125 547Q2123 552 2124.0 557.5Q2125 563 2129 568Q2132 573 2137.0 575.5Q2142 578 2148 578Q2150 578 2152.5 578.5Q2155 579 2158 580Q2162 580 2164.0 581.5Q2166 583 2166 585Q2164 591 2160.5 595.5Q2157 600 2153 601Q2148 603 2143.5 602.5Q2139 602 2134 600Q2123 595 2114.5 595.5Q2106 596 2100 601Q2094 606 2092.5 614.5Q2091 623 2094 634Q2095 637 2095.0 639.0Q2095 641 2094 643Q2093 645 2091.0 645.0Q2089 645 2087 644Q2078 645 2070.5 644.5Q2063 644 2057 643Q2050 641 2043.0 640.5Q2036 640 2028 640Q2025 640 2023.0 640.5Q2021 641 2020 642Q2018 644 2019.0 646.0Q2020 648 2022 650Q2028 656 2030.0 660.0Q2032 664 2031 667Q2030 671 2028.5 675.0Q2027 679 2025 684Q2021 690 2020.5 695.0Q2020 700 2021 703Q2023 707 2027.0 709.5Q2031 712 2038 712Q2047 713 2057.0 709.0Q2067 705 2078 698Q2090 690 2096.5 681.0Q2103 672 2104 661Q2106 658 2109.0 656.5Q2112 655 2116 656Q2120 657 2121.5 659.5Q2123 662 2123 666Q2123 673 2123.0 680.5Q2123 688 2123 694Q2123 701 2123.0 708.0Q2123 715 2123 722Q2123 725 2124.0 728.5Q2125 732 2126 734Q2128 737 2131.0 738.5Q2134 740 2138 741Q2143 741 2147.5 739.0Q2152 737 2155 734Q2159 731 2163.5 728.5Q2168 726 2172 724Q2177 719 2181.5 713.0Q2186 707 2189 701Q2193 695 2196.0 689.0Q2199 683 2201 677Q2202 676 2202.5 675.0Q2203 674 2204 672Q2204 671 2205.0 670.0Q2206 669 2207 668Q2215 668 2222.5 670.0Q2230 672 2238 676Q2245 680 2250.0 686.5Q2255 693 2257 703Q2259 711 2261.0 718.0Q2263 725 2265 731Q2266 738 2268.0 745.0Q2270 752 2271 760Q2271 763 2271.5 766.0Q2272 769 2274 772Q2275 774 2277.5 776.0Q2280 778 2283 779ZM2762 749 2769 753Q2775 755 2780.0 753.5Q2785 752 2789 748Q2793 743 2794.5 738.0Q2796 733 2796 727Q2794 722 2793.5 718.0Q2793 714 2793 711Q2794 707 2793.5 702.5Q2793 698 2792 693Q2792 692 2793.0 690.5Q2794 689 2795 688Q2797 687 2798.5 687.0Q2800 687 2802 687Q2805 688 2808.0 688.5Q2811 689 2814 690Q2816 690 2819.5 690.0Q2823 690 2827 690Q2837 689 2843.0 685.0Q2849 681 2852 674Q2854 666 2853.5 658.5Q2853 651 2850 643Q2844 632 2837.5 621.5Q2831 611 2823 602Q2816 592 2808.5 581.5Q2801 571 2794 560Q2791 556 2790.0 552.5Q2789 549 2789 546Q2790 543 2791.5 539.5Q2793 536 2796 531Q2800 524 2802.5 517.0Q2805 510 2806 503Q2806 495 2803.0 488.5Q2800 482 2793 475Q2789 477 2785.5 478.5Q2782 480 2778 482Q2775 484 2771.0 487.0Q2767 490 2764 494Q2760 498 2757.5 499.5Q2755 501 2753 500Q2751 499 2748.5 497.0Q2746 495 2742 491Q2730 475 2718.0 459.5Q2706 444 2695 429Q2684 415 2671.0 399.5Q2658 384 2642 368Q2638 365 2634.5 363.5Q2631 362 2628 363Q2625 364 2623.5 366.5Q2622 369 2622 374L2621 393Q2624 400 2628.5 406.0Q2633 412 2638 419Q2643 425 2648.0 431.5Q2653 438 2659 445Q2660 447 2662.0 447.5Q2664 448 2666 448Q2669 448 2671.0 448.0Q2673 448 2675 449Q2683 458 2689.5 466.0Q2696 474 2702 482Q2709 490 2715.5 498.5Q2722 507 2729 516Q2732 519 2732.5 521.5Q2733 524 2732 526Q2730 528 2728.0 530.0Q2726 532 2723 534L2706 547Q2701 551 2699.5 555.5Q2698 560 2702 564Q2705 569 2709.5 570.5Q2714 572 2719 571Q2726 571 2731.5 570.0Q2737 569 2743 568Q2749 566 2754.5 565.5Q2760 565 2766 565Q2774 574 2781.0 584.0Q2788 594 2794 604Q2801 614 2806.0 623.5Q2811 633 2815 643Q2816 647 2816.0 650.0Q2816 653 2814 654Q2813 656 2810.0 655.5Q2807 655 2803 653Q2787 646 2771.0 636.5Q2755 627 2740 615Q2724 603 2710.5 589.0Q2697 575 2685 559Q2680 554 2676.5 552.0Q2673 550 2670 550Q2668 550 2665.0 552.5Q2662 555 2659 560Q2654 567 2651.5 574.0Q2649 581 2649 586Q2649 592 2649.0 598.5Q2649 605 2648 612Q2647 615 2646.5 617.5Q2646 620 2646 622Q2645 624 2646.0 626.5Q2647 629 2650 631L2690 697Q2698 709 2706.5 718.0Q2715 727 2723 732Q2731 738 2741.0 742.0Q2751 746 2762 749ZM2878 775Q2887 779 2895.0 778.5Q2903 778 2911 774Q2919 769 2922.5 761.0Q2926 753 2927 742L2924 740Q2922 721 2920.0 702.5Q2918 684 2916 666Q2915 649 2913.5 630.5Q2912 612 2911 592Q2910 587 2910.5 583.5Q2911 580 2913 579Q2915 577 2918.5 576.0Q2922 575 2927 574Q2946 572 2964.0 568.5Q2982 565 3000 561Q3018 557 3036.5 550.5Q3055 544 3074 535Q3078 534 3081.5 532.5Q3085 531 3089 530Q3092 529 3096.0 526.5Q3100 524 3104 521Q3109 517 3112.0 512.5Q3115 508 3116 504Q3117 500 3116.0 496.0Q3115 492 3111 488Q3108 489 3105.5 489.5Q3103 490 3100 490Q3097 491 3094.5 491.5Q3092 492 3090 492Q3073 496 3057.5 498.0Q3042 500 3028 501Q3013 501 2997.5 503.5Q2982 506 2965 511Q2958 514 2952.0 516.0Q2946 518 2940 521Q2934 523 2928.0 523.5Q2922 524 2916 523L2913 518L2907 437Q2908 423 2910.0 408.5Q2912 394 2914 381Q2916 367 2917.5 352.0Q2919 337 2921 322Q2922 314 2921.0 307.0Q2920 300 2917 293Q2914 286 2907.5 287.0Q2901 288 2892 298Q2887 308 2883.5 318.5Q2880 329 2878 339Q2876 350 2874.5 360.5Q2873 371 2873 381Q2872 385 2871.5 389.5Q2871 394 2871 399Q2870 404 2872.5 407.5Q2875 411 2880 413Q2881 414 2881.5 415.0Q2882 416 2883 418Q2883 420 2883.0 421.5Q2883 423 2883 424L2881 480Q2882 488 2882.5 495.5Q2883 503 2884 511Q2884 518 2884.0 526.0Q2884 534 2883 542Q2879 546 2876.0 549.0Q2873 552 2869 553Q2866 555 2862.5 558.0Q2859 561 2855 565Q2854 567 2853.0 569.0Q2852 571 2853 572Q2853 574 2854.5 574.0Q2856 574 2859 574Q2864 574 2868.0 575.0Q2872 576 2875 577Q2879 579 2881.0 582.5Q2883 586 2884 592L2886 703Q2887 708 2887.5 713.5Q2888 719 2888 724Q2889 729 2889.0 734.5Q2889 740 2887 746Q2885 750 2881.5 754.0Q2878 758 2874 762Q2870 765 2871.0 768.5Q2872 772 2878 775ZM3668 469Q3665 469 3663.5 468.5Q3662 468 3661 466Q3661 465 3660.0 463.5Q3659 462 3659 461Q3656 455 3652.5 449.0Q3649 443 3645 437Q3641 432 3635.5 427.0Q3630 422 3623 418Q3620 418 3617.0 417.5Q3614 417 3611 416Q3609 416 3606.5 414.5Q3604 413 3601 410Q3599 408 3598.0 407.0Q3597 406 3597 404Q3597 403 3598.5 402.5Q3600 402 3603 401Q3611 402 3618.5 403.5Q3626 405 3634 407Q3642 410 3650.5 413.0Q3659 416 3668 420Q3674 422 3678.5 421.5Q3683 421 3685 418Q3688 415 3688.0 411.0Q3688 407 3686 401Q3685 399 3684.5 397.0Q3684 395 3683 393Q3682 391 3683.0 389.5Q3684 388 3687 386Q3697 381 3705.5 379.5Q3714 378 3720 379Q3727 381 3732.0 387.5Q3737 394 3742 406Q3743 410 3744.0 413.0Q3745 416 3745 419Q3745 422 3742.5 424.0Q3740 426 3735 426Q3727 429 3720.0 433.0Q3713 437 3706 441Q3700 446 3693.0 451.5Q3686 457 3679 463Q3677 465 3675.5 466.5Q3674 468 3673 468Q3671 469 3670.0 469.0Q3669 469 3668 469ZM3550 583 3545 580Q3539 577 3534.0 573.5Q3529 570 3525 567Q3520 563 3518.0 558.5Q3516 554 3516 548Q3515 544 3515.5 541.0Q3516 538 3519 536Q3521 534 3525.0 534.5Q3529 535 3533 538Q3539 544 3544.5 550.5Q3550 557 3555 565Q3560 572 3558.5 576.5Q3557 581 3550 583ZM3604 580Q3599 585 3595.5 585.0Q3592 585 3590 581Q3588 576 3587.5 572.0Q3587 568 3588 565Q3593 562 3596.5 559.5Q3600 557 3603 555Q3606 553 3605.0 549.0Q3604 545 3599 538Q3593 536 3587.0 533.0Q3581 530 3575 527Q3570 524 3564.0 519.5Q3558 515 3551 510Q3549 507 3548.5 504.5Q3548 502 3548 501Q3548 500 3550.0 499.5Q3552 499 3555 499Q3562 502 3570.0 505.0Q3578 508 3585 512Q3593 515 3601.0 519.0Q3609 523 3618 526Q3623 531 3623.0 537.0Q3623 543 3618 552Q3613 560 3609.5 567.0Q3606 574 3604 580ZM3579 629Q3576 630 3574.0 630.0Q3572 630 3570 629Q3569 628 3567.5 627.0Q3566 626 3564 624Q3561 622 3557.5 619.5Q3554 617 3551 614Q3548 612 3546.0 609.0Q3544 606 3542 603Q3539 600 3538.5 598.0Q3538 596 3539 595Q3540 593 3542.0 592.0Q3544 591 3547 591Q3551 593 3555.0 594.5Q3559 596 3562 598Q3565 600 3569.5 601.0Q3574 602 3579 603Q3583 603 3585.0 604.5Q3587 606 3588 609Q3588 612 3587.0 615.0Q3586 618 3585 621L3579 629ZM3653 748Q3631 742 3611.0 736.5Q3591 731 3572 726Q3553 721 3533.0 712.5Q3513 704 3492 693L3480 686Q3480 680 3481.0 674.5Q3482 669 3485 664Q3488 660 3494.0 658.5Q3500 657 3510 659L3544 672Q3547 673 3549.0 674.5Q3551 676 3552 678Q3553 680 3553.5 682.0Q3554 684 3554 686Q3554 692 3556.0 696.0Q3558 700 3562 701Q3565 703 3570.0 702.0Q3575 701 3580 698Q3583 695 3585.5 693.0Q3588 691 3590 691Q3592 691 3595.0 691.5Q3598 692 3601 694Q3602 696 3603.0 696.5Q3604 697 3605 697Q3606 697 3607.0 697.0Q3608 697 3610 697Q3615 697 3617.5 698.0Q3620 699 3620 702Q3620 705 3619.5 708.5Q3619 712 3618 715Q3617 718 3616.5 721.0Q3616 724 3617 725Q3617 727 3619.5 728.5Q3622 730 3625 730Q3640 729 3654.0 724.0Q3668 719 3681 711Q3695 704 3703.5 692.0Q3712 680 3716 664Q3716 659 3714.0 656.0Q3712 653 3709 651Q3705 650 3700.5 651.5Q3696 653 3692 656Q3687 662 3683.0 665.5Q3679 669 3675 670Q3671 672 3666.5 670.5Q3662 669 3656 665Q3652 663 3648.0 661.5Q3644 660 3641 659Q3637 658 3633.0 657.5Q3629 657 3624 656Q3619 655 3615.5 652.0Q3612 649 3610 646Q3609 642 3608.5 638.0Q3608 634 3609 629Q3611 623 3614.0 616.5Q3617 610 3620 603Q3624 596 3628.0 589.0Q3632 582 3637 574Q3639 572 3640.5 571.5Q3642 571 3644 571Q3645 572 3646.5 573.5Q3648 575 3650 577Q3652 583 3653.0 589.5Q3654 596 3655 602Q3655 608 3655.5 614.5Q3656 621 3656 628Q3658 636 3662.0 641.0Q3666 646 3672 647Q3679 648 3683.0 644.5Q3687 641 3690 634Q3689 629 3690.0 625.0Q3691 621 3694 618Q3696 616 3696.0 612.0Q3696 608 3693 604L3692 599Q3689 585 3688.5 571.5Q3688 558 3690 546Q3691 533 3695.5 519.5Q3700 506 3706 492L3738 445Q3741 443 3743.0 442.5Q3745 442 3746 443Q3748 444 3749.0 446.0Q3750 448 3750 450Q3752 481 3750.5 510.0Q3749 539 3745 566Q3741 593 3736.5 622.0Q3732 651 3728 681Q3727 689 3726.0 696.5Q3725 704 3723 712Q3721 719 3717.0 726.5Q3713 734 3707 741Q3703 743 3698.5 744.5Q3694 746 3689 747Q3684 748 3679.5 748.5Q3675 749 3671 749L3653 748ZM3430 720Q3433 719 3436.0 718.0Q3439 717 3441 717Q3444 716 3447.0 716.0Q3450 716 3454 716Q3478 728 3501.5 737.0Q3525 746 3548 753Q3571 759 3595.5 763.0Q3620 767 3645 768Q3652 770 3659.0 770.5Q3666 771 3672 771Q3679 771 3686.0 769.5Q3693 768 3701 765Q3706 765 3711.0 763.5Q3716 762 3721 760Q3727 758 3732.0 754.0Q3737 750 3741 745Q3746 729 3749.5 713.5Q3753 698 3754 683Q3756 668 3758.0 652.5Q3760 637 3762 621Q3763 613 3765.0 606.0Q3767 599 3769 592Q3771 585 3772.5 577.5Q3774 570 3774 561Q3776 546 3778.5 532.0Q3781 518 3782 504Q3784 491 3784.5 476.5Q3785 462 3785 445V435Q3785 423 3784.5 412.0Q3784 401 3783 391Q3781 382 3777.5 370.5Q3774 359 3768 347L3737 305Q3731 298 3725.5 296.0Q3720 294 3716 296Q3711 298 3707.5 301.5Q3704 305 3701 311Q3700 316 3698.0 321.5Q3696 327 3693 333Q3691 339 3686.0 344.5Q3681 350 3675 355Q3666 366 3658.5 371.5Q3651 377 3646 378Q3641 379 3633.0 377.0Q3625 375 3615 372Q3604 370 3594.0 367.0Q3584 364 3574 361Q3565 357 3555.0 355.0Q3545 353 3535 353Q3527 350 3520.0 348.0Q3513 346 3506 344Q3500 342 3492.5 341.0Q3485 340 3477 339Q3476 339 3473.5 339.0Q3471 339 3468 339Q3465 340 3463.5 341.0Q3462 342 3461 343Q3459 349 3458.5 354.0Q3458 359 3460 364Q3462 369 3462.5 374.5Q3463 380 3463 386Q3464 389 3465.5 390.5Q3467 392 3469 392Q3471 392 3473.5 392.0Q3476 392 3477 391Q3480 389 3482.5 387.0Q3485 385 3488 383Q3490 381 3493.0 379.5Q3496 378 3499 376Q3508 380 3517.0 384.5Q3526 389 3536 395Q3545 400 3554.5 407.0Q3564 414 3573 422Q3581 427 3588.0 435.0Q3595 443 3601 453Q3608 463 3609.0 470.5Q3610 478 3606 482Q3593 479 3581.0 473.5Q3569 468 3558 460Q3547 453 3534.5 446.5Q3522 440 3510 434Q3501 428 3491.0 423.5Q3481 419 3470 416Q3459 413 3454.0 418.5Q3449 424 3449 437Q3449 439 3449.0 441.0Q3449 443 3449 444Q3448 446 3447.5 447.5Q3447 449 3446 451Q3446 454 3446.0 456.5Q3446 459 3447 460Q3448 461 3450.0 462.0Q3452 463 3456 463Q3461 464 3466.5 466.5Q3472 469 3478 473Q3484 477 3488.0 482.0Q3492 487 3494 493Q3494 497 3492.5 499.5Q3491 502 3488 504Q3485 505 3482.5 507.0Q3480 509 3477 512Q3473 519 3471.0 524.5Q3469 530 3468 535Q3467 540 3466.5 545.5Q3466 551 3466 556Q3469 562 3471.0 567.0Q3473 572 3475 577Q3476 581 3478.5 585.5Q3481 590 3483 594Q3486 598 3488.5 601.0Q3491 604 3495 606Q3498 609 3500.5 612.5Q3503 616 3504 619Q3504 622 3502.5 623.0Q3501 624 3499 625Q3496 625 3493.5 625.5Q3491 626 3489 627Q3484 630 3478.5 631.5Q3473 633 3468 631Q3463 630 3460.0 626.0Q3457 622 3456 616L3450 603Q3451 599 3450.0 596.0Q3449 593 3447 590Q3445 587 3444.5 584.5Q3444 582 3444 580Q3442 567 3440.0 554.5Q3438 542 3437 530Q3435 519 3433.0 506.0Q3431 493 3427 479Q3427 465 3426.0 452.0Q3425 439 3424 427Q3424 414 3422.5 400.5Q3421 387 3419 372Q3417 369 3415.0 367.0Q3413 365 3410 364Q3408 364 3406.0 364.5Q3404 365 3401 367Q3394 372 3388.0 376.5Q3382 381 3377 385Q3373 389 3370.0 394.5Q3367 400 3366 407Q3364 409 3362.5 410.5Q3361 412 3360 413Q3358 413 3356.5 413.5Q3355 414 3354 415Q3351 419 3350.5 422.5Q3350 426 3350 429Q3350 432 3350.0 435.5Q3350 439 3350 443Q3349 456 3349.5 467.5Q3350 479 3351 490Q3351 501 3353.0 512.5Q3355 524 3358 537Q3361 555 3363.5 571.5Q3366 588 3368 603Q3370 619 3373.0 636.0Q3376 653 3380 671Q3383 681 3387.0 689.0Q3391 697 3396 703Q3401 709 3409.5 713.0Q3418 717 3430 720ZM4171 470Q4164 468 4157.0 464.0Q4150 460 4143 454Q4136 448 4129.5 441.0Q4123 434 4116 426Q4115 422 4115.0 418.0Q4115 414 4118 411Q4121 408 4125.0 408.5Q4129 409 4135 415Q4140 419 4147.5 427.0Q4155 435 4165 446Q4175 458 4176.5 464.0Q4178 470 4171 470ZM4350 550Q4356 555 4363.0 564.0Q4370 573 4379 587Q4387 601 4387.0 606.0Q4387 611 4377 608Q4370 604 4364.5 600.0Q4359 596 4357 591Q4355 587 4353.0 581.0Q4351 575 4350 568Q4348 566 4347.0 564.0Q4346 562 4346 560Q4346 557 4346.5 555.0Q4347 553 4350 550ZM4043 624Q4045 622 4047.5 620.0Q4050 618 4052 616Q4054 613 4056.5 612.0Q4059 611 4063 611Q4077 614 4090.0 618.5Q4103 623 4115 627Q4128 632 4141.0 637.5Q4154 643 4169 649Q4175 653 4181.0 657.0Q4187 661 4193 665Q4199 668 4205.0 670.5Q4211 673 4218 674Q4223 675 4227.5 673.5Q4232 672 4235 668Q4237 664 4236.5 659.5Q4236 655 4231 649Q4224 645 4218.0 640.0Q4212 635 4206 630Q4200 624 4194.0 618.5Q4188 613 4181 608Q4178 605 4177.0 602.5Q4176 600 4176 599Q4175 598 4176.0 596.0Q4177 594 4179 591Q4182 586 4182.0 581.5Q4182 577 4179 574Q4176 570 4172.5 566.5Q4169 563 4164 560Q4161 557 4158.0 555.5Q4155 554 4153 552Q4150 551 4147.5 551.0Q4145 551 4141 552Q4139 552 4136.5 551.5Q4134 551 4131 550Q4129 549 4126.0 547.5Q4123 546 4120 544Q4114 542 4110.0 542.5Q4106 543 4103 546Q4100 549 4101.0 553.5Q4102 558 4107 563Q4114 570 4121.5 575.0Q4129 580 4137 584Q4145 588 4151.0 594.5Q4157 601 4160 610Q4159 611 4158.0 611.5Q4157 612 4157 611Q4156 610 4155.0 609.5Q4154 609 4153 608Q4140 603 4127.0 598.5Q4114 594 4102 588Q4089 583 4075.5 577.5Q4062 572 4047 566Q4040 563 4034.0 563.0Q4028 563 4023 566Q4018 568 4015.5 573.5Q4013 579 4013 587Q4012 593 4013.5 599.5Q4015 606 4020 613Q4024 620 4030.0 622.5Q4036 625 4043 624ZM4135 745Q4136 748 4138.0 749.0Q4140 750 4143 750Q4146 750 4148.5 750.0Q4151 750 4153 749Q4156 750 4159.5 750.5Q4163 751 4166 750Q4169 749 4172.5 747.5Q4176 746 4179 745Q4198 738 4205.5 728.0Q4213 718 4211 704Q4209 691 4199.5 681.5Q4190 672 4174 667L4140 665Q4136 666 4133.5 668.0Q4131 670 4131 672Q4131 675 4132.5 677.5Q4134 680 4138 683Q4147 693 4149.0 701.5Q4151 710 4146 715Q4142 721 4139.0 728.0Q4136 735 4135 745ZM4359 749Q4366 754 4372.0 755.5Q4378 757 4383 756Q4388 754 4394.0 752.5Q4400 751 4407 749Q4415 747 4419.0 743.0Q4423 739 4424 732Q4424 726 4422.5 719.5Q4421 713 4418 706Q4412 701 4407.5 696.5Q4403 692 4399 687Q4395 682 4393.0 676.5Q4391 671 4390 665L4394 661Q4404 661 4413.0 659.0Q4422 657 4430 654Q4438 651 4440.0 642.5Q4442 634 4439 619Q4436 612 4432.5 605.0Q4429 598 4426 591Q4423 584 4418.5 576.5Q4414 569 4408 561Q4406 558 4405.5 555.5Q4405 553 4406 552Q4408 550 4410.0 549.5Q4412 549 4415 549Q4427 551 4438.0 553.5Q4449 556 4459 560Q4470 564 4481.0 565.0Q4492 566 4504 565Q4510 563 4513.5 560.5Q4517 558 4518 554Q4518 551 4515.0 547.0Q4512 543 4506 538Q4486 534 4467.0 528.5Q4448 523 4431 516Q4413 510 4394.5 501.5Q4376 493 4356 484Q4349 477 4342.5 471.5Q4336 466 4330 461Q4325 456 4318.0 450.5Q4311 445 4303 440Q4300 434 4300.0 429.0Q4300 424 4302 420Q4304 417 4308.5 417.0Q4313 417 4320 422L4346 437Q4356 446 4365.0 452.5Q4374 459 4382 463Q4390 467 4399.0 471.0Q4408 475 4418 478Q4431 480 4441.0 477.0Q4451 474 4458 465Q4465 457 4464.0 446.5Q4463 436 4454 423Q4448 415 4444.5 408.5Q4441 402 4440 395Q4438 389 4440.5 382.0Q4443 375 4449 367Q4452 363 4452.0 358.0Q4452 353 4449 348Q4445 342 4441.0 339.0Q4437 336 4432 335Q4425 332 4417.5 330.5Q4410 329 4403 329Q4397 328 4389.5 327.5Q4382 327 4375 325Q4364 326 4357.0 331.5Q4350 337 4348 347Q4346 358 4349.5 366.5Q4353 375 4362 381Q4367 384 4372.0 388.5Q4377 393 4381 398Q4385 404 4388.0 409.0Q4391 414 4394 419Q4395 422 4395.5 424.5Q4396 427 4395 428Q4394 430 4392.5 431.0Q4391 432 4388 432Q4380 435 4372.5 435.0Q4365 435 4358 431Q4350 427 4343.5 421.0Q4337 415 4331 407Q4322 398 4317.5 390.0Q4313 382 4312 376Q4311 370 4312.5 362.0Q4314 354 4319 344Q4322 335 4321.0 328.0Q4320 321 4315 316Q4311 310 4304.0 309.5Q4297 309 4287 313Q4273 325 4263.5 338.5Q4254 352 4247 366Q4241 381 4241.0 394.5Q4241 408 4246 420Q4257 432 4268.0 440.0Q4279 448 4289 452Q4300 457 4311.5 464.5Q4323 472 4336 484Q4337 486 4338.0 487.5Q4339 489 4339 491Q4339 492 4337.5 492.5Q4336 493 4333 492L4312 485Q4302 482 4292.5 479.5Q4283 477 4274 475Q4265 473 4256.0 470.0Q4247 467 4237 463Q4229 458 4223.5 452.0Q4218 446 4214 439Q4210 432 4211.0 425.0Q4212 418 4219 411Q4220 408 4220.0 405.0Q4220 402 4219 399Q4219 396 4216.5 393.5Q4214 391 4210 388Q4200 384 4190.0 380.0Q4180 376 4171 373Q4161 370 4151.0 367.5Q4141 365 4132 363Q4129 362 4126.0 361.0Q4123 360 4120 360Q4118 359 4115.0 359.0Q4112 359 4109 360Q4099 367 4091.5 375.0Q4084 383 4080 392Q4075 402 4072.5 411.0Q4070 420 4069 430Q4070 435 4072.0 439.5Q4074 444 4078 449Q4082 453 4086.0 458.0Q4090 463 4094 468Q4096 471 4096.5 473.0Q4097 475 4096 477Q4095 478 4093.5 478.5Q4092 479 4089 478Q4085 476 4081.0 474.5Q4077 473 4074 471Q4070 470 4066.5 469.0Q4063 468 4059 467Q4054 466 4051.5 467.0Q4049 468 4047 471Q4047 474 4048.5 477.0Q4050 480 4054 484Q4063 487 4071.0 490.0Q4079 493 4087 496Q4095 499 4103.5 503.0Q4112 507 4121 512Q4127 515 4133.0 517.5Q4139 520 4144 522Q4150 525 4155.5 529.0Q4161 533 4168 538Q4170 541 4172.0 542.0Q4174 543 4177 543Q4179 543 4181.5 543.0Q4184 543 4187 542Q4190 541 4191.5 539.5Q4193 538 4193 536Q4193 534 4191.5 532.0Q4190 530 4187 529Q4179 526 4171.0 522.0Q4163 518 4156 514Q4149 510 4141.5 504.0Q4134 498 4126 490Q4124 487 4123.5 485.0Q4123 483 4124 481Q4125 479 4127.0 479.0Q4129 479 4133 480Q4140 483 4146.5 486.0Q4153 489 4160 491Q4166 494 4173.0 496.5Q4180 499 4188 500Q4193 502 4197.0 502.5Q4201 503 4204 501Q4207 500 4211.0 497.5Q4215 495 4220 492Q4230 492 4239.0 493.0Q4248 494 4258 498Q4267 501 4276.5 504.0Q4286 507 4296 511Q4300 513 4302.0 515.0Q4304 517 4303 518Q4303 520 4302.0 522.5Q4301 525 4300 528Q4297 532 4295.0 537.5Q4293 543 4292 548Q4291 553 4289.5 558.5Q4288 564 4287 569Q4286 576 4284.0 579.5Q4282 583 4278 584Q4274 585 4270.0 586.0Q4266 587 4262 587Q4257 588 4254.0 590.0Q4251 592 4250 593Q4249 595 4250.0 598.5Q4251 602 4255 606Q4257 609 4260.5 611.0Q4264 613 4267 614Q4271 616 4274.5 617.5Q4278 619 4282 621Q4296 625 4304.5 630.0Q4313 635 4317 640Q4321 646 4325.5 655.5Q4330 665 4334 678Q4334 681 4333.5 682.5Q4333 684 4332 686Q4331 687 4329.0 688.0Q4327 689 4325 690Q4321 691 4317.5 692.5Q4314 694 4311 696Q4308 698 4304.0 700.5Q4300 703 4296 706Q4291 710 4289.5 714.5Q4288 719 4291 724Q4293 730 4296.5 734.0Q4300 738 4305 740Q4313 740 4319.5 740.5Q4326 741 4332 742Q4338 743 4345.0 745.0Q4352 747 4359 749ZM5000 389H4997Q4992 388 4987.5 386.5Q4983 385 4978 384Q4974 383 4969.5 381.5Q4965 380 4960 378Q4953 375 4946.0 372.5Q4939 370 4933 367Q4926 364 4919.5 361.5Q4913 359 4905 357Q4903 356 4901.5 355.0Q4900 354 4898 353Q4896 351 4895.5 349.0Q4895 347 4895 344Q4896 342 4898.0 340.0Q4900 338 4903 336Q4906 334 4908.5 332.5Q4911 331 4914 330Q4924 324 4934.5 320.0Q4945 316 4954 315Q4964 314 4974.5 319.0Q4985 324 4996 335Q5001 340 5004.5 348.5Q5008 357 5010 367Q5012 378 5009.5 383.5Q5007 389 5000 389ZM4845 532 4830 528Q4828 526 4827.5 524.5Q4827 523 4828 521Q4828 520 4829.5 519.5Q4831 519 4834 519Q4836 521 4839.5 522.5Q4843 524 4847 526Q4852 527 4851.0 529.0Q4850 531 4845 532ZM4908 608Q4906 609 4905.0 609.0Q4904 609 4903 608Q4902 606 4901.5 605.0Q4901 604 4901 603Q4900 599 4899.0 596.0Q4898 593 4897 590Q4896 587 4896.0 584.0Q4896 581 4896 578Q4895 576 4893.0 574.0Q4891 572 4888 570Q4885 568 4882.5 566.5Q4880 565 4878 563Q4876 561 4874.5 559.5Q4873 558 4873 557Q4873 556 4874.5 555.0Q4876 554 4878 553Q4888 552 4897.5 552.5Q4907 553 4916 554Q4925 556 4935.5 560.0Q4946 564 4957 571Q4959 573 4960.0 575.0Q4961 577 4961 578Q4961 579 4959.0 579.5Q4957 580 4954 580L4946 586Q4945 588 4944.0 589.0Q4943 590 4942 589Q4942 589 4940.5 588.0Q4939 587 4937 585Q4932 578 4927.5 577.0Q4923 576 4919 580Q4915 584 4912.5 589.0Q4910 594 4910 600L4908 608ZM4980 621Q4982 615 4984.5 614.0Q4987 613 4990 617Q4993 621 4993.5 624.0Q4994 627 4991 628Q4988 629 4986.5 629.0Q4985 629 4984 628Q4983 627 4982.0 625.0Q4981 623 4980 621ZM4954 636 4965 646Q4970 650 4973.5 654.5Q4977 659 4977 664Q4978 669 4976.0 669.5Q4974 670 4969 666Q4966 663 4964.0 659.5Q4962 656 4960 652Q4959 649 4957.5 645.0Q4956 641 4954 636ZM5055 675Q5054 676 5052.5 675.5Q5051 675 5051 675Q5050 674 5049.5 673.5Q5049 673 5048 672Q5047 669 5045.5 666.0Q5044 663 5043 660Q5042 658 5041.5 655.0Q5041 652 5041 649Q5041 648 5041.5 647.0Q5042 646 5042 645Q5043 644 5044.0 643.5Q5045 643 5046 643Q5049 646 5052.0 650.0Q5055 654 5056 660Q5058 665 5058.0 669.0Q5058 673 5055 675ZM5078 749Q5077 749 5075.5 749.0Q5074 749 5073 748Q5072 748 5071.5 747.5Q5071 747 5070 746Q5061 738 5053.0 729.5Q5045 721 5039 713Q5033 705 5028.0 696.0Q5023 687 5019 678Q5018 674 5018.5 672.0Q5019 670 5021 669Q5023 668 5025.0 670.0Q5027 672 5029 675Q5031 680 5033.0 684.5Q5035 689 5038 692Q5042 695 5046.0 699.0Q5050 703 5054 706Q5063 711 5069.0 713.5Q5075 716 5079 716Q5083 715 5084.5 721.5Q5086 728 5085 742Q5085 743 5084.5 744.5Q5084 746 5083 747Q5082 748 5080.5 748.5Q5079 749 5078 749ZM4994 779Q4996 785 4999.0 788.0Q5002 791 5006 791Q5010 791 5013.0 787.5Q5016 784 5019 778Q5019 773 5021.0 768.5Q5023 764 5028 758Q5033 753 5037.5 750.5Q5042 748 5047 748Q5052 752 5056.0 755.5Q5060 759 5063 762Q5067 765 5070.5 767.5Q5074 770 5078 771Q5083 772 5086.5 772.0Q5090 772 5093 770Q5096 767 5097.5 763.5Q5099 760 5098 755Q5100 748 5100.0 741.0Q5100 734 5100 727Q5099 720 5098.0 713.0Q5097 706 5095 698Q5093 689 5091.5 679.5Q5090 670 5089 661Q5088 652 5085.5 642.0Q5083 632 5080 621Q5080 618 5080.0 616.0Q5080 614 5081 614Q5082 613 5084.5 612.5Q5087 612 5090 612Q5099 613 5107.0 613.5Q5115 614 5124 615Q5132 616 5140.0 615.5Q5148 615 5157 612Q5163 611 5168.5 610.0Q5174 609 5179 608Q5184 606 5189.5 603.0Q5195 600 5202 596Q5206 592 5207.5 588.0Q5209 584 5208 579Q5206 575 5203.0 572.0Q5200 569 5195 568Q5182 568 5170.0 566.0Q5158 564 5148 561Q5137 558 5124.5 558.0Q5112 558 5098 561Q5097 561 5095.5 562.0Q5094 563 5094 564Q5093 565 5094.0 565.5Q5095 566 5097 567Q5103 569 5108.0 571.0Q5113 573 5118 574Q5123 576 5128.5 579.0Q5134 582 5140 586Q5143 588 5144.5 590.5Q5146 593 5145 595Q5145 597 5143.0 598.0Q5141 599 5138 599L5066 586Q5063 585 5060.5 583.0Q5058 581 5055 580Q5052 578 5049.5 577.0Q5047 576 5044 575L5034 577Q5021 573 5009.0 568.5Q4997 564 4986 558Q4974 552 4961.5 545.5Q4949 539 4936 531Q4934 530 4933.0 529.0Q4932 528 4933 526Q4933 525 4934.0 524.5Q4935 524 4937 523Q4945 524 4952.5 526.0Q4960 528 4967 532Q4974 535 4982.0 539.0Q4990 543 4998 548Q5009 555 5016.5 559.0Q5024 563 5030 563Q5035 564 5043.5 562.5Q5052 561 5063 558Q5065 557 5067.0 555.0Q5069 553 5069 550Q5070 547 5070.0 544.0Q5070 541 5069 538Q5064 529 5058.0 521.0Q5052 513 5044 506Q5037 498 5029.0 489.5Q5021 481 5014 470Q5012 467 5011.5 464.0Q5011 461 5012 459Q5013 457 5015.5 455.5Q5018 454 5022 454Q5030 456 5037.0 457.0Q5044 458 5051 458Q5057 458 5064.5 457.0Q5072 456 5080 453L5110 448Q5113 447 5114.5 446.0Q5116 445 5117 443Q5117 440 5115.5 438.0Q5114 436 5111 434Q5104 428 5097.0 424.0Q5090 420 5084 417Q5078 414 5071.0 412.0Q5064 410 5055 409Q5052 408 5049.5 406.5Q5047 405 5045 403Q5044 401 5044.0 398.0Q5044 395 5045 392Q5048 378 5049.5 365.5Q5051 353 5051 342Q5051 331 5046.0 318.0Q5041 305 5032 291L5029 288Q5015 280 5000.0 277.0Q4985 274 4969 275Q4954 275 4938.5 281.0Q4923 287 4909 298Q4902 302 4896.0 306.0Q4890 310 4885 315Q4879 320 4873.5 325.0Q4868 330 4862 335Q4859 338 4857.0 342.0Q4855 346 4856 350Q4857 354 4859.0 358.5Q4861 363 4864 367Q4876 382 4889.5 393.0Q4903 404 4917 410Q4930 417 4944.5 424.0Q4959 431 4974 438Q4977 440 4978.5 441.5Q4980 443 4981 445Q4981 447 4980.0 449.0Q4979 451 4977 454Q4972 455 4969.5 458.0Q4967 461 4966 464Q4966 468 4968.0 471.0Q4970 474 4974 475Q4980 478 4984.0 481.5Q4988 485 4991 490Q4994 494 4997.5 499.0Q5001 504 5004 509Q5005 510 5005.0 511.5Q5005 513 5005 514Q5004 514 5003.0 514.0Q5002 514 5001 513Q4994 508 4987.5 504.5Q4981 501 4974 498Q4968 496 4961.0 493.0Q4954 490 4947 487Q4941 485 4936.0 485.5Q4931 486 4926 490Q4921 493 4917.5 497.5Q4914 502 4911 507Q4910 511 4909.0 513.0Q4908 515 4906 516Q4904 517 4901.5 516.5Q4899 516 4897 515Q4887 509 4877.5 504.0Q4868 499 4859 494Q4850 489 4840.5 482.5Q4831 476 4821 467Q4816 461 4812.5 455.0Q4809 449 4807 443Q4805 438 4802.5 431.5Q4800 425 4797 419Q4795 415 4793.0 411.5Q4791 408 4788 407Q4785 405 4781.5 404.5Q4778 404 4774 404Q4769 401 4765.0 400.0Q4761 399 4757 399Q4754 399 4749.5 401.0Q4745 403 4740 407Q4733 413 4729.5 417.0Q4726 421 4724 424Q4723 427 4722.5 431.5Q4722 436 4723 442Q4724 446 4724.0 449.0Q4724 452 4723 454Q4722 457 4721.5 459.5Q4721 462 4720 466Q4719 468 4719.0 470.0Q4719 472 4720 475Q4721 477 4722.5 479.0Q4724 481 4727 481Q4731 483 4733.5 485.0Q4736 487 4738 489Q4739 492 4740.5 494.5Q4742 497 4743 500Q4746 507 4749.5 513.0Q4753 519 4757 524Q4761 530 4767.5 536.0Q4774 542 4781 548Q4787 550 4793.0 551.5Q4799 553 4805 554Q4811 556 4817.0 557.5Q4823 559 4829 560Q4832 560 4834.0 561.0Q4836 562 4837 563Q4837 564 4835.5 566.0Q4834 568 4831 572L4826 580Q4825 586 4824.0 592.0Q4823 598 4823 604Q4823 610 4821.0 616.0Q4819 622 4816 628Q4816 630 4815.5 632.0Q4815 634 4815 636Q4815 638 4815.5 640.0Q4816 642 4817 644Q4821 654 4824.0 663.0Q4827 672 4829 681Q4830 689 4832.0 698.5Q4834 708 4835 717Q4836 720 4837.5 723.5Q4839 727 4841 730Q4843 733 4845.5 735.0Q4848 737 4851 737Q4856 737 4862.0 735.0Q4868 733 4874 728Q4880 724 4886.0 719.5Q4892 715 4897 710Q4900 704 4902.0 697.5Q4904 691 4904 684Q4905 678 4906.0 671.0Q4907 664 4908 658Q4907 656 4906.5 654.5Q4906 653 4906 650Q4906 648 4907.5 647.0Q4909 646 4911 647Q4913 656 4914.0 664.5Q4915 673 4916 681Q4917 690 4916.5 698.5Q4916 707 4915 716Q4914 718 4913.0 720.0Q4912 722 4911 723Q4910 725 4910.5 725.5Q4911 726 4912 727Q4915 726 4916.0 726.0Q4917 726 4917 726Q4917 726 4917.0 727.0Q4917 728 4917 730Q4918 732 4919.0 733.0Q4920 734 4921 736Q4922 737 4923.5 737.5Q4925 738 4927 737Q4935 738 4941.0 736.0Q4947 734 4951 730Q4956 725 4957.0 718.5Q4958 712 4957 704Q4956 702 4956.0 701.0Q4956 700 4957 700Q4958 699 4959.0 699.5Q4960 700 4961 702Q4964 706 4967.0 709.0Q4970 712 4974 714Q4977 716 4980.0 718.5Q4983 721 4986 724Q4989 731 4990.5 738.0Q4992 745 4992 752Q4991 759 4991.5 765.5Q4992 772 4994 779ZM5769 584Q5757 581 5745.5 574.5Q5734 568 5723 558Q5712 548 5700.5 538.5Q5689 529 5677 519Q5674 517 5673.0 515.0Q5672 513 5673 511Q5674 509 5675.5 507.0Q5677 505 5680 503L5705 486Q5707 485 5709.0 484.0Q5711 483 5713 484Q5714 484 5715.5 485.5Q5717 487 5718 490Q5721 494 5723.0 498.0Q5725 502 5727 506Q5728 509 5729.5 513.0Q5731 517 5731 521Q5732 525 5734.5 529.5Q5737 534 5741 538Q5745 542 5749.0 544.5Q5753 547 5758 548Q5763 549 5768.0 554.0Q5773 559 5777 567Q5780 575 5778.5 579.5Q5777 584 5769 584ZM5797 673 5804 674Q5808 674 5811.5 672.5Q5815 671 5816 669Q5818 666 5816.5 663.5Q5815 661 5811 658Q5799 654 5785.5 648.5Q5772 643 5757 637Q5743 631 5731.5 621.0Q5720 611 5712 597Q5706 593 5701.0 588.5Q5696 584 5692 580Q5687 576 5683.0 570.0Q5679 564 5675 558Q5674 555 5673.5 553.5Q5673 552 5674 550Q5674 549 5675.5 548.5Q5677 548 5680 549Q5690 554 5699.5 559.0Q5709 564 5718 569Q5728 574 5737.5 579.0Q5747 584 5758 588Q5767 595 5775.5 600.0Q5784 605 5792 609Q5801 613 5809.5 615.0Q5818 617 5828 618Q5835 617 5839.5 614.5Q5844 612 5846 607Q5848 602 5845.5 598.5Q5843 595 5836 592Q5829 590 5821.5 585.0Q5814 580 5807 573Q5799 565 5792.5 558.0Q5786 551 5781 543L5779 521Q5777 515 5774.5 509.5Q5772 504 5769 499Q5765 494 5762.0 488.0Q5759 482 5756 476Q5753 472 5751.0 468.0Q5749 464 5749 461Q5748 458 5751.0 453.5Q5754 449 5760 443Q5773 431 5785.0 420.5Q5797 410 5809 401Q5820 392 5833.0 385.0Q5846 378 5861 372Q5868 369 5874.5 367.0Q5881 365 5887 363Q5894 362 5901.0 359.0Q5908 356 5916 353Q5919 350 5920.0 347.5Q5921 345 5922 343Q5922 341 5920.5 339.0Q5919 337 5916 336Q5904 334 5892.5 332.5Q5881 331 5870 329Q5859 328 5847.5 328.0Q5836 328 5824 329Q5811 336 5799.5 344.5Q5788 353 5778 363Q5768 373 5757.5 384.5Q5747 396 5736 409Q5732 412 5729.5 413.0Q5727 414 5725 414Q5724 414 5721.5 412.0Q5719 410 5717 406Q5708 391 5698.5 380.0Q5689 369 5679 363Q5669 356 5657.0 353.0Q5645 350 5631 351Q5626 351 5622.0 351.5Q5618 352 5614 354Q5610 355 5606.0 358.5Q5602 362 5598 367Q5596 370 5595.5 373.0Q5595 376 5595 380Q5596 384 5598.5 385.0Q5601 386 5605 385Q5618 383 5631.0 386.5Q5644 390 5657 399Q5670 407 5679.0 419.5Q5688 432 5694 447Q5693 451 5690.5 456.0Q5688 461 5684 465Q5680 469 5675.5 473.0Q5671 477 5666 481Q5663 484 5661.0 486.0Q5659 488 5657 491Q5655 493 5653.0 494.0Q5651 495 5648 495L5630 487Q5626 489 5624.0 491.0Q5622 493 5621 496Q5620 500 5620.0 502.5Q5620 505 5620 507Q5623 512 5625.0 516.0Q5627 520 5628 524Q5629 527 5630.0 530.5Q5631 534 5631 537Q5635 541 5638.5 543.5Q5642 546 5644 549Q5646 551 5649.0 553.0Q5652 555 5656 556L5685 588Q5687 591 5688.0 593.5Q5689 596 5688 597Q5688 598 5686.0 598.0Q5684 598 5681 597Q5676 595 5670.0 593.0Q5664 591 5659 588Q5653 586 5647.5 583.0Q5642 580 5636 575Q5632 573 5628.5 573.0Q5625 573 5623 575Q5620 577 5618.5 580.0Q5617 583 5617 587Q5618 591 5619.0 594.5Q5620 598 5621 602Q5622 606 5624.0 608.5Q5626 611 5630 612Q5633 612 5635.5 611.5Q5638 611 5640 609Q5641 607 5644.0 607.0Q5647 607 5650 608Q5662 611 5674.0 615.5Q5686 620 5697 626Q5708 631 5720.0 636.0Q5732 641 5744 647Q5751 651 5757.5 654.5Q5764 658 5770 662Q5776 666 5783.0 668.5Q5790 671 5797 673ZM5560 715Q5562 721 5564.0 726.5Q5566 732 5569 736Q5572 740 5577.0 740.5Q5582 741 5588 739Q5595 736 5599.5 732.5Q5604 729 5606 725Q5609 721 5608.5 716.0Q5608 711 5604 705Q5601 700 5599.5 695.5Q5598 691 5598 687Q5598 683 5598.5 678.0Q5599 673 5599 668Q5599 664 5599.0 659.5Q5599 655 5599 651Q5599 647 5602.5 643.5Q5606 640 5612 636Q5615 634 5616.0 631.5Q5617 629 5617 626Q5617 623 5615.5 620.5Q5614 618 5611 616Q5605 613 5601.0 610.5Q5597 608 5595 605Q5592 602 5591.0 597.5Q5590 593 5589 587Q5590 581 5590.0 575.5Q5590 570 5589 564Q5588 559 5587.5 553.0Q5587 547 5587 541Q5587 538 5587.5 536.5Q5588 535 5589 535Q5590 534 5592.5 534.5Q5595 535 5598 536L5618 555Q5621 558 5623.0 559.0Q5625 560 5626 559Q5627 559 5628.0 557.5Q5629 556 5630 553Q5629 549 5628.0 545.5Q5627 542 5625 537Q5623 533 5620.5 530.0Q5618 527 5614 524Q5615 522 5614.5 521.0Q5614 520 5614 519Q5613 518 5612.0 517.0Q5611 516 5610 515Q5605 509 5601.5 503.5Q5598 498 5595 493Q5592 488 5588.0 482.5Q5584 477 5579 470Q5576 452 5576.0 434.5Q5576 417 5578 400Q5581 383 5582.0 365.0Q5583 347 5584 328Q5583 324 5581.5 321.5Q5580 319 5577 318Q5574 317 5571.0 318.0Q5568 319 5564 323L5555 335Q5551 345 5548.5 355.0Q5546 365 5544 375Q5542 385 5541.0 395.0Q5540 405 5539 416Q5539 419 5538.5 421.5Q5538 424 5536 425Q5535 426 5533.0 425.0Q5531 424 5528 420Q5518 414 5508.5 407.0Q5499 400 5489 392Q5480 384 5470.5 380.0Q5461 376 5451 376Q5447 382 5444.0 388.0Q5441 394 5441 399Q5440 405 5440.0 411.0Q5440 417 5441 423Q5443 427 5443.5 431.0Q5444 435 5442 438Q5441 441 5441.0 445.0Q5441 449 5442 453Q5443 455 5444.5 456.0Q5446 457 5449 457Q5452 458 5454.0 458.5Q5456 459 5458 460Q5470 471 5479.0 483.0Q5488 495 5495 507Q5501 520 5507.0 532.0Q5513 544 5518 556Q5519 560 5519.0 562.0Q5519 564 5517 565Q5516 566 5514.0 566.0Q5512 566 5508 565L5436 537Q5421 535 5413.0 539.0Q5405 543 5404 552Q5403 560 5408.0 569.0Q5413 578 5425 586Q5430 587 5434.5 588.5Q5439 590 5443 592Q5447 594 5451.0 596.0Q5455 598 5460 600Q5466 603 5470.0 604.5Q5474 606 5476 606Q5478 606 5482.0 604.0Q5486 602 5492 597Q5498 598 5504.5 600.0Q5511 602 5516 604Q5522 606 5529.0 609.0Q5536 612 5543 615Q5545 616 5546.5 617.5Q5548 619 5549 620Q5550 621 5551.0 622.5Q5552 624 5553 627L5560 715ZM5710 747Q5712 748 5713.0 749.0Q5714 750 5715 750Q5717 749 5718.5 748.5Q5720 748 5723 746Q5728 742 5732.5 740.0Q5737 738 5742 736Q5746 735 5751.0 732.0Q5756 729 5761 725Q5767 721 5771.0 717.0Q5775 713 5777 709Q5780 705 5780.0 700.0Q5780 695 5778 690Q5772 685 5766.0 681.5Q5760 678 5754 675Q5748 673 5742.0 671.0Q5736 669 5730 667Q5727 667 5725.0 667.5Q5723 668 5722 669Q5721 670 5721.5 672.0Q5722 674 5724 677Q5726 679 5727.5 681.5Q5729 684 5729 686Q5730 689 5729.5 691.5Q5729 694 5727 696Q5715 699 5709.0 704.0Q5703 709 5702 716Q5700 722 5702.0 730.0Q5704 738 5710 747ZM1327 57 1309 133Q1309 135 1308.0 138.0Q1307 141 1307 145Q1307 146 1306.5 147.0Q1306 148 1306 149Q1306 153 1310.0 155.0Q1314 157 1323 158V167H1261V158Q1269 158 1273.5 152.0Q1278 146 1280 135L1309 18H1326Q1335 48 1343.0 76.0Q1351 104 1358 129L1387 18H1404L1432 127Q1435 143 1441.5 150.5Q1448 158 1457 158V167H1407V158Q1417 157 1421.5 154.0Q1426 151 1425 146Q1425 145 1425.0 143.5Q1425 142 1424 140Q1424 136 1423.5 133.0Q1423 130 1423 129Q1418 108 1413.5 90.0Q1409 72 1404 56L1377 164H1357L1327 57ZM1629 167H1579V158Q1591 161 1596.0 152.5Q1601 144 1600 124V77Q1599 52 1590.0 39.0Q1581 26 1564 26Q1546 26 1537.0 38.0Q1528 50 1528 73V135Q1527 147 1531.0 152.5Q1535 158 1544 158V167H1483V158Q1492 158 1496.5 152.5Q1501 147 1500 135V67Q1500 42 1514.0 29.0Q1528 16 1556 16Q1582 16 1595.5 31.0Q1609 46 1609 77V124Q1608 143 1613.0 151.5Q1618 160 1629 158V167ZM1745 26V19H1808V26Q1798 26 1793.5 31.5Q1789 37 1790 48V136Q1789 148 1793.5 153.0Q1798 158 1807 158V167H1746V158Q1754 158 1758.5 153.0Q1763 148 1762 136V102H1705V136Q1704 148 1708.0 153.5Q1712 159 1721 158V167H1660V158Q1670 159 1674.0 153.5Q1678 148 1677 136V47Q1678 37 1673.5 31.5Q1669 26 1659 26V19H1722V26Q1713 27 1708.5 32.0Q1704 37 1705 47V91H1762V48Q1763 37 1759.0 31.5Q1755 26 1745 26ZM1916 26V19H1982V26Q1977 26 1973.5 27.5Q1970 29 1968 31Q1965 33 1963.5 37.0Q1962 41 1960 47L1918 169L1903 167Q1901 161 1896.5 148.5Q1892 136 1886 118Q1872 81 1864.0 59.5Q1856 38 1852 32Q1852 29 1847.5 28.0Q1843 27 1835 26V19H1886V26Q1877 27 1872.5 29.5Q1868 32 1869 35Q1871 42 1873.0 49.5Q1875 57 1878 65H1924L1930 49Q1932 44 1933.0 40.5Q1934 37 1933 35Q1934 31 1929.5 29.0Q1925 27 1916 26ZM1920 77H1882Q1885 88 1890.0 102.0Q1895 116 1902 132Q1903 129 1904.5 123.5Q1906 118 1909 111Q1912 100 1915.0 91.5Q1918 83 1920 77ZM2155 167H2105V158Q2116 160 2121.5 152.5Q2127 145 2126 129V57L2052 167H2010V158Q2021 159 2025.5 153.0Q2030 147 2029 134V55Q2030 40 2025.0 32.5Q2020 25 2009 26V19H2059V26Q2048 25 2042.5 32.5Q2037 40 2039 55V138L2120 18H2135V129Q2134 145 2139.0 152.0Q2144 159 2155 158V167ZM2281 136V48Q2282 37 2277.5 31.5Q2273 26 2264 26V19H2327V26Q2317 26 2312.5 31.5Q2308 37 2308 48V90H2326Q2335 90 2340.5 84.5Q2346 79 2347 68H2355V120H2347Q2345 110 2340.0 105.0Q2335 100 2326 100H2308V157H2331Q2344 157 2352.5 148.0Q2361 139 2364 120L2373 123L2370 167H2265V158Q2274 159 2278.0 153.5Q2282 148 2281 136ZM2476 170Q2443 170 2426.5 150.0Q2410 130 2409 90Q2409 53 2426.0 34.5Q2443 16 2476 15Q2509 16 2525.5 35.5Q2542 55 2543 94Q2542 132 2525.5 151.0Q2509 170 2476 170ZM2476 161Q2494 160 2503.0 142.5Q2512 125 2512 91Q2512 58 2503.0 41.5Q2494 25 2476 26Q2457 25 2448.5 41.5Q2440 58 2440 93Q2440 128 2449.0 145.0Q2458 162 2476 161ZM2595 136V47Q2596 36 2591.5 31.0Q2587 26 2578 26V19H2641V26Q2631 26 2626.5 31.0Q2622 36 2623 47V86H2629Q2637 87 2642.5 83.0Q2648 79 2651 70Q2655 61 2659.5 48.0Q2664 35 2670 19H2710V26Q2704 27 2700.5 29.5Q2697 32 2695 37Q2694 39 2692.5 42.5Q2691 46 2689 51Q2688 54 2687.0 56.0Q2686 58 2685 60Q2680 75 2670.5 82.5Q2661 90 2648 91Q2670 92 2681.0 102.0Q2692 112 2693 131Q2694 150 2679.5 159.0Q2665 168 2635 167H2578V158Q2588 159 2592.0 153.5Q2596 148 2595 136ZM2631 95H2623V158H2632Q2648 158 2655.5 150.5Q2663 143 2663 128Q2663 112 2655.0 104.0Q2647 96 2631 95ZM2754 136V48Q2754 37 2750.0 31.5Q2746 26 2737 26V19H2845L2849 67L2841 70Q2835 48 2826.5 37.0Q2818 26 2806 26H2782V90H2799Q2808 90 2813.5 84.5Q2819 79 2820 68H2828V121H2820Q2819 111 2813.5 105.5Q2808 100 2799 100H2782V157H2806Q2818 157 2826.0 148.0Q2834 139 2838 120L2847 123L2843 167H2737V158Q2746 159 2750.5 153.5Q2755 148 2754 136ZM2946 167H2884V158Q2893 158 2897.5 153.0Q2902 148 2901 136V47Q2902 37 2897.5 31.5Q2893 26 2883 26V19H2947V26Q2937 26 2932.5 31.5Q2928 37 2930 47V136Q2928 148 2932.5 153.5Q2937 159 2946 158ZM3116 89H3057V80Q3067 82 3071.5 76.5Q3076 71 3075 59V29Q3070 28 3063.5 27.0Q3057 26 3049 26Q3031 26 3022.0 42.5Q3013 59 3012 91Q3012 125 3022.0 142.5Q3032 160 3051 160Q3065 160 3075.5 149.0Q3086 138 3093 116L3102 120L3098 167Q3096 165 3093.0 164.5Q3090 164 3087 164Q3085 164 3081.5 164.5Q3078 165 3073 167Q3065 168 3059.0 169.0Q3053 170 3049 170Q3016 167 2999.5 147.0Q2983 127 2982 89Q2982 54 2998.5 35.5Q3015 17 3048 16Q3055 16 3063.0 17.5Q3071 19 3080 22Q3086 24 3091.5 25.0Q3097 26 3103 26Q3102 29 3102.0 33.5Q3102 38 3102 44V60Q3102 71 3105.5 76.0Q3109 81 3116 80V89ZM3294 167H3244V158Q3255 160 3260.5 152.5Q3266 145 3265 129V57L3191 167H3149V158Q3160 159 3164.5 153.0Q3169 147 3168 134V55Q3169 40 3164.0 32.5Q3159 25 3148 26V19H3198V26Q3187 25 3181.5 32.5Q3176 40 3177 55V138L3259 18H3274V129Q3273 145 3278.0 152.0Q3283 159 3294 158V167ZM3508 19 3513 70 3504 74Q3497 50 3487.0 38.0Q3477 26 3464 26H3449V136Q3449 148 3453.0 153.0Q3457 158 3465 158V167H3403V158Q3413 159 3417.0 153.5Q3421 148 3421 136V47Q3422 37 3417.5 31.5Q3413 26 3403 26V19H3508ZM3617 26V19H3683V26Q3678 26 3674.5 27.5Q3671 29 3668 31Q3666 33 3664.0 37.0Q3662 41 3661 47L3619 169L3604 167Q3602 161 3597.5 148.5Q3593 136 3586 118Q3573 81 3564.5 59.5Q3556 38 3553 32Q3552 29 3548.0 28.0Q3544 27 3536 26V19H3586V26Q3577 27 3573.0 29.5Q3569 32 3570 35Q3571 42 3573.5 49.5Q3576 57 3579 65H3624L3630 49Q3633 44 3633.5 40.5Q3634 37 3634 35Q3634 31 3630.0 29.0Q3626 27 3617 26ZM3621 77H3583Q3586 88 3591.0 102.0Q3596 116 3603 132Q3604 129 3605.5 123.5Q3607 118 3609 111Q3613 100 3616.0 91.5Q3619 83 3621 77ZM3856 167H3806V158Q3817 160 3822.5 152.5Q3828 145 3827 129V57L3753 167H3711V158Q3721 159 3726.0 153.0Q3731 147 3730 134V55Q3731 40 3726.0 32.5Q3721 25 3710 26V19H3760V26Q3749 25 3743.5 32.5Q3738 40 3739 55V138L3821 18H3836V129Q3835 145 3840.0 152.0Q3845 159 3856 158V167ZM4026 89H3967V80Q3977 82 3981.5 76.5Q3986 71 3985 59V29Q3979 28 3972.5 27.0Q3966 26 3959 26Q3941 26 3932.0 42.5Q3923 59 3922 91Q3922 125 3931.5 142.5Q3941 160 3960 160Q3975 160 3985.5 149.0Q3996 138 4003 116L4012 120L4008 167Q4005 165 4002.5 164.5Q4000 164 3997 164Q3995 164 3991.0 164.5Q3987 165 3983 167Q3975 168 3969.0 169.0Q3963 170 3959 170Q3926 167 3909.0 147.0Q3892 127 3892 89Q3892 54 3908.5 35.5Q3925 17 3958 16Q3965 16 3972.5 17.5Q3980 19 3989 22Q3995 24 4001.0 25.0Q4007 26 4012 26Q4012 29 4012.0 33.5Q4012 38 4012 44V60Q4011 71 4014.5 76.0Q4018 81 4026 80V89ZM4203 167H4153V158Q4165 161 4170.0 152.5Q4175 144 4174 124V77Q4173 52 4164.0 39.0Q4155 26 4138 26Q4120 26 4111.0 38.0Q4102 50 4102 73V135Q4101 147 4105.5 152.5Q4110 158 4118 158V167H4057V158Q4066 158 4070.5 152.5Q4075 147 4074 135V67Q4074 42 4088.0 29.0Q4102 16 4130 16Q4157 16 4170.0 31.0Q4183 46 4183 77V124Q4182 143 4187.0 151.5Q4192 160 4203 158V167ZM4310 26V19H4377V26Q4371 26 4367.5 27.5Q4364 29 4362 31Q4360 33 4358.0 37.0Q4356 41 4354 47L4312 169L4298 167Q4295 161 4290.5 148.5Q4286 136 4280 118Q4267 81 4258.5 59.5Q4250 38 4246 32Q4246 29 4241.5 28.0Q4237 27 4229 26V19H4280V26Q4271 27 4267.0 29.5Q4263 32 4263 35Q4265 42 4267.0 49.5Q4269 57 4272 65H4318L4324 49Q4326 44 4327.0 40.5Q4328 37 4327 35Q4328 31 4323.5 29.0Q4319 27 4310 26ZM4314 77H4276Q4279 88 4284.0 102.0Q4289 116 4296 132Q4297 129 4299.0 123.5Q4301 118 4303 111Q4307 100 4309.5 91.5Q4312 83 4314 77ZM4543 89H4484V80Q4494 82 4498.5 76.5Q4503 71 4502 59V29Q4496 28 4489.5 27.0Q4483 26 4476 26Q4458 26 4449.0 42.5Q4440 59 4439 91Q4439 125 4448.5 142.5Q4458 160 4477 160Q4492 160 4502.5 149.0Q4513 138 4520 116L4529 120L4525 167Q4523 165 4520.0 164.5Q4517 164 4514 164Q4512 164 4508.5 164.5Q4505 165 4500 167Q4492 168 4486.0 169.0Q4480 170 4476 170Q4443 167 4426.5 147.0Q4410 127 4409 89Q4409 54 4425.5 35.5Q4442 17 4475 16Q4482 16 4490.0 17.5Q4498 19 4507 22Q4512 24 4518.0 25.0Q4524 26 4530 26Q4529 29 4529.0 33.5Q4529 38 4529 44V60Q4529 71 4532.5 76.0Q4536 81 4543 80V89ZM4592 136V48Q4592 37 4588.0 31.5Q4584 26 4575 26V19H4683L4687 67L4679 70Q4674 48 4665.0 37.0Q4656 26 4644 26H4620V90H4637Q4647 90 4652.0 84.5Q4657 79 4658 68H4666V121H4658Q4657 111 4652.0 105.5Q4647 100 4637 100H4620V157H4644Q4656 157 4664.5 148.0Q4673 139 4677 120L4686 123L4681 167H4575V158Q4585 159 4589.0 153.5Q4593 148 4592 136ZM4816 123 4813 169Q4810 167 4808.0 166.5Q4806 166 4804 166Q4803 166 4800.5 166.0Q4798 166 4795 167Q4794 167 4793.5 167.0Q4793 167 4793 167Q4792 167 4791.0 167.5Q4790 168 4789 168Q4785 169 4781.0 169.5Q4777 170 4773 170Q4751 170 4739.5 159.0Q4728 148 4727 126Q4726 112 4734.0 101.5Q4742 91 4759 84Q4779 76 4788.5 67.0Q4798 58 4797 48Q4797 37 4790.5 31.5Q4784 26 4772 26Q4758 26 4749.0 37.0Q4740 48 4736 70L4728 67L4730 19Q4735 20 4740.5 20.5Q4746 21 4751 20Q4753 19 4755.0 19.0Q4757 19 4760 18Q4763 17 4766.0 17.0Q4769 17 4772 17Q4796 17 4809.0 28.0Q4822 39 4822 60Q4823 75 4813.0 86.5Q4803 98 4783 107Q4766 114 4758.0 122.0Q4750 130 4751 138Q4753 149 4758.5 154.5Q4764 160 4773 161Q4784 161 4793.0 150.5Q4802 140 4808 119L4816 123ZM5029 123 5026 169Q5023 167 5020.5 166.5Q5018 166 5017 166Q5015 166 5013.0 166.0Q5011 166 5007 167Q5006 167 5006.0 167.0Q5006 167 5006 167Q5005 167 5004.0 167.5Q5003 168 5001 168Q4998 169 4994.0 169.5Q4990 170 4986 170Q4964 170 4952.0 159.0Q4940 148 4939 126Q4939 112 4947.0 101.5Q4955 91 4971 84Q4991 76 5000.5 67.0Q5010 58 5009 48Q5009 37 5002.5 31.5Q4996 26 4984 26Q4971 26 4962.0 37.0Q4953 48 4948 70L4940 67L4942 19Q4948 20 4953.0 20.5Q4958 21 4964 20Q4965 19 4967.5 19.0Q4970 19 4973 18Q4976 17 4978.5 17.0Q4981 17 4984 17Q5009 17 5021.5 28.0Q5034 39 5035 60Q5035 75 5025.0 86.5Q5015 98 4995 107Q4978 114 4970.0 122.0Q4962 130 4964 138Q4965 149 4970.5 154.5Q4976 160 4986 161Q4997 161 5005.5 150.5Q5014 140 5021 119L5029 123ZM5193 114 5189 166Q5189 166 5188.0 166.0Q5187 166 5186 165Q5184 164 5182.5 164.0Q5181 164 5180 164Q5177 164 5175.0 164.0Q5173 164 5171 165Q5162 168 5154.5 169.5Q5147 171 5140 170Q5107 169 5090.5 149.0Q5074 129 5074 90Q5074 54 5091.0 35.5Q5108 17 5142 16Q5163 16 5177.0 26.0Q5191 36 5198 56L5189 61Q5182 44 5171.5 35.0Q5161 26 5147 26Q5126 27 5115.0 44.0Q5104 61 5104 94Q5104 127 5113.5 143.5Q5123 160 5142 160Q5156 161 5166.5 148.5Q5177 136 5184 111L5193 114ZM5316 26V19H5378V26Q5368 26 5364.0 31.5Q5360 37 5360 48V136Q5360 148 5364.0 153.0Q5368 158 5377 158V167H5316V158Q5325 158 5329.0 153.0Q5333 148 5333 136V102H5275V136Q5275 148 5279.0 153.5Q5283 159 5292 158V167H5231V158Q5240 159 5244.5 153.5Q5249 148 5248 136V47Q5248 37 5243.5 31.5Q5239 26 5230 26V19H5292V26Q5283 27 5279.0 32.0Q5275 37 5275 47V91H5333V48Q5334 37 5329.5 31.5Q5325 26 5316 26ZM5482 170Q5450 170 5433.0 150.0Q5416 130 5415 90Q5415 53 5432.0 34.5Q5449 16 5482 15Q5515 16 5532.0 35.5Q5549 55 5549 94Q5549 132 5532.0 151.0Q5515 170 5482 170ZM5482 161Q5500 160 5509.0 142.5Q5518 125 5518 91Q5518 58 5509.0 41.5Q5500 25 5482 26Q5464 25 5455.0 41.5Q5446 58 5446 93Q5446 128 5455.0 145.0Q5464 162 5482 161ZM5657 170Q5624 170 5607.5 150.0Q5591 130 5590 90Q5590 53 5606.5 34.5Q5623 16 5657 15Q5690 16 5706.5 35.5Q5723 55 5724 94Q5723 132 5706.5 151.0Q5690 170 5657 170ZM5657 161Q5675 160 5683.5 142.5Q5692 125 5692 91Q5692 58 5683.5 41.5Q5675 25 5657 26Q5638 25 5629.0 41.5Q5620 58 5621 93Q5621 128 5630.0 145.0Q5639 162 5657 161ZM5864 19 5869 70 5860 74Q5854 50 5844.0 38.0Q5834 26 5820 26H5805V136Q5805 148 5809.0 153.0Q5813 158 5822 158V167H5760V158Q5769 159 5773.5 153.5Q5778 148 5777 136V47Q5778 37 5773.5 31.5Q5769 26 5759 26V19H5864ZM651 197H380V522Q380 535 370.0 549.5Q360 564 342 564Q316 564 299.0 542.0Q282 520 250 512Q266 510 287.0 502.0Q308 494 308 480V126H651ZM662 567H760Q757 550 753.5 534.5Q750 519 747 502Q746 499 739.5 500.0Q733 501 733 498V408H752V341H733V187Q733 166 713.5 146.0Q694 126 662 126ZM574 618H672L645 581V210H391V579L354 618H462V281H484V618H555V281H574V618ZM340 542Q348 542 354.5 536.0Q361 530 361 522Q361 513 354.5 507.0Q348 501 340 501Q331 501 325.0 507.0Q319 513 319 522Q319 530 325.0 536.0Q331 542 340 542ZM512 719Q581 719 642.5 693.0Q704 667 749 621Q795 576 821.0 514.5Q847 453 847 384Q847 315 821.0 253.5Q795 192 749 147Q704 101 642.5 75.0Q581 49 512 49Q443 49 381.5 75.0Q320 101 275 147Q229 192 203.0 253.5Q177 315 177 384Q177 453 203.0 514.5Q229 576 275 621Q320 667 381.5 693.0Q443 719 512 719ZM734 606Q692 649 634.5 673.5Q577 698 512 698Q447 698 389.5 673.5Q332 649 290 606Q247 564 222.5 506.5Q198 449 198 384Q198 319 222.5 261.5Q247 204 290 162Q332 119 389.5 94.5Q447 70 512 70Q577 70 634.5 94.5Q692 119 734 162Q777 204 801.5 261.5Q826 319 826 384Q826 449 801.5 506.5Q777 564 734 606ZM512 896Q565 896 615 886Q665 875 711.0 855.5Q757 836 798 809Q839 781 874 746Q909 711 937 670Q964 629 983.5 583.0Q1003 537 1014 487Q1024 437 1024 384Q1024 331 1014 281Q1003 231 983.5 185.0Q964 139 937 98Q909 57 874 22Q839 -13 798 -41Q757 -68 711.0 -87.5Q665 -107 615 -118Q565 -128 512 -128Q459 -128 409 -118Q359 -107 313.0 -87.5Q267 -68 226 -41Q185 -13 150 22Q115 57 87 98Q60 139 40.5 185.0Q21 231 10 281Q0 331 0 384Q0 437 10 487Q21 537 40.5 583.0Q60 629 87 670Q115 711 150 746Q185 781 226 809Q267 836 313.0 855.5Q359 875 409 886Q459 896 512 896ZM859 731Q826 764 786 791Q747 818 703.0 836.5Q659 855 611 865Q563 875 512 875Q461 875 413 865Q365 855 321.0 836.5Q277 818 238 791Q198 764 165 731Q132 698 105 658Q78 619 59.5 575.0Q41 531 31 483Q21 435 21 384Q21 333 31 285Q41 237 59.5 193.0Q78 149 105 110Q132 70 165 37Q198 4 238 -23Q277 -50 321.0 -68.5Q365 -87 413 -97Q461 -107 512 -107Q563 -107 611 -97Q659 -87 703.0 -68.5Q747 -50 786 -23Q826 4 859 37Q892 70 919 110Q946 149 964.5 193.0Q983 237 993 285Q1003 333 1003 384Q1003 435 993 483Q983 531 964.5 575.0Q946 619 919 658Q892 698 859 731ZM76 458 101 531Q93 533 84.0 535.5Q75 538 66 542L69 551Q79 548 87.5 545.0Q96 542 104 540L117 576L125 573L113 538Q133 532 146.5 529.5Q160 527 167 528Q174 529 178.0 531.0Q182 533 183 536Q182 538 180.5 540.0Q179 542 176 543Q174 545 169.5 547.0Q165 549 160 552Q161 554 163.0 556.0Q165 558 166 560Q172 557 177.0 554.5Q182 552 186 549Q191 546 192.5 542.0Q194 538 192 533Q190 528 186.0 524.5Q182 521 175 520Q167 517 150.5 519.0Q134 521 110 528L84 455L76 458ZM100 492 104 501 122 494 130 517 138 514 130 491 155 483Q157 490 158.5 498.0Q160 506 162 514L171 512Q166 491 161.5 471.5Q157 452 153 433L143 435Q144 438 145.0 441.0Q146 444 147 448L100 464L103 473L149 457Q150 461 151.0 465.0Q152 469 153 474L100 492ZM54 477 73 530 81 528 63 474 54 477ZM83 554 78 561Q83 565 88.5 569.0Q94 573 100 576L105 568Q99 564 93.5 561.0Q88 558 83 554ZM156 667 149 673 198 730 204 724Q218 709 226.0 692.5Q234 676 237 657Q249 658 261.0 661.0Q273 664 285 670Q285 668 286.0 665.0Q287 662 287 658Q275 652 262.5 649.5Q250 647 238 647Q239 634 238.0 621.0Q237 608 234 594Q231 594 228.0 594.5Q225 595 222 594Q226 608 227.5 621.5Q229 635 228 647Q211 648 194.0 654.5Q177 661 161 673L156 667ZM198 715 167 680Q182 670 197.0 664.0Q212 658 227 657Q224 673 217.0 687.5Q210 702 198 715ZM183 617Q185 618 187.5 619.5Q190 621 192 623Q200 612 207.0 601.0Q214 590 220 580L210 574Q205 584 198.0 595.0Q191 606 183 617ZM126 657Q134 659 141.5 660.5Q149 662 156 663L157 652Q147 651 139.5 649.5Q132 648 127 647L126 657ZM147 630Q154 632 161.0 633.0Q168 634 175 635L176 625Q167 624 160.0 622.5Q153 621 148 620L147 630ZM286 728Q289 746 289.0 764.0Q289 782 285 800L296 802Q297 797 297.5 791.5Q298 786 298 781L331 796L335 787Q345 757 341.0 729.5Q337 702 320 679Q318 680 315.5 681.5Q313 683 310 684Q319 696 324.0 708.0Q329 720 330 733Q325 735 318.5 736.5Q312 738 306 739L308 749Q315 747 320.5 746.0Q326 745 331 744Q331 753 329.5 762.5Q328 772 325 782L299 771Q299 759 298.5 746.5Q298 734 296 721Q294 723 291.5 725.0Q289 727 286 728ZM333 821 343 825 361 785 363 792Q375 789 385.0 786.5Q395 784 404 782L401 770Q392 773 382.5 776.0Q373 779 362 782L394 711L384 706L333 821ZM454 849 566 851 568 732H558V738L466 736V730H456L454 849ZM556 842 464 840 466 745 558 747 556 842ZM471 768H506V794L475 793V802H506L505 820L472 819V828L548 829V820H515V803H546V794H515L516 769H551V761L471 759V768ZM522 786 529 791Q533 788 536.0 784.5Q539 781 541 778L534 772Q531 776 528.0 779.5Q525 783 522 786ZM656 775 676 766 686 782 669 789 673 797 691 789 698 802 676 812 680 820 755 787 752 778 707 798 699 785 736 769 725 745 740 738 736 730 653 767 656 775ZM658 750 720 723 701 680 692 684 696 691 651 711 647 704 639 708 658 750ZM646 739Q645 736 644.0 733.0Q643 730 643 728Q635 727 627.5 725.5Q620 724 612 722L610 732Q613 733 615.0 735.5Q617 738 618 741L639 787L626 793L629 801L652 791L626 735Q632 736 637.0 737.0Q642 738 646 739ZM708 718 663 738 654 719 699 699 708 718ZM724 765 695 778 685 762 716 749ZM658 834Q662 825 664.5 818.0Q667 811 668 807L657 803Q655 810 653.0 817.0Q651 824 648 831L658 834ZM765 691 804 646 809 650 836 641 796 686 803 692 853 636 845 629 813 640 811 638 847 596 840 590 804 632 789 619Q784 614 778.5 614.5Q773 615 768 621Q765 624 762.0 627.5Q759 631 755 636Q757 637 758.5 639.0Q760 641 762 644Q765 640 768.0 636.0Q771 632 774 629Q776 626 778.5 626.0Q781 626 784 628L797 640L758 685L765 691ZM807 722 883 634 864 617 857 624 870 635 807 708 794 697 788 705 807 722ZM866 666Q872 665 878.5 665.5Q885 666 891 666L892 655Q886 655 879.5 655.0Q873 655 865 655L866 666ZM855 704 864 701Q863 695 861.5 689.0Q860 683 858 677L848 680Q850 686 851.5 692.0Q853 698 855 704ZM829 728 838 726Q838 720 837.0 714.0Q836 708 835 702L824 704Q826 711 827.5 716.5Q829 722 829 728ZM866 563Q879 560 891.5 559.5Q904 559 915 560L910 576L918 579L924 562L949 571L952 562L927 554L932 540L923 537L918 551L907 547L912 544Q908 538 905.0 533.5Q902 529 900 526L893 531Q895 534 897.5 537.5Q900 541 904 546L833 521L830 530L894 552Q883 552 873.5 552.5Q864 553 857 555Q859 557 861.5 559.0Q864 561 866 563ZM908 507Q901 501 895.5 494.5Q890 488 886 481Q893 479 901.5 477.5Q910 476 920 477V466Q908 467 898.5 468.5Q889 470 881 472Q878 464 877.0 453.5Q876 443 876 432Q874 433 871.0 433.5Q868 434 865 435Q865 447 867.0 457.5Q869 468 872 476Q863 481 854.5 488.5Q846 496 837 506Q839 507 840.5 509.5Q842 512 844 514Q852 505 860.0 497.5Q868 490 877 486Q881 493 887.0 500.0Q893 507 902 514L908 507ZM939 538 951 505Q954 508 957.0 511.0Q960 514 964 517L970 511Q967 507 964.0 503.5Q961 500 957 497L951 504L965 465L956 462L931 535L939 538ZM934 516 933 506Q922 509 912.0 511.5Q902 514 892 517Q893 519 893.5 521.5Q894 524 894 526Q904 523 914.5 520.5Q925 518 934 516ZM937 490 944 486Q940 477 935.0 468.0Q930 459 924 451L916 456Q921 464 926.5 472.5Q932 481 937 490ZM52 334 99 354 100 347 69 335Q66 334 64.0 333.0Q62 332 59 332Q63 331 65.5 331.0Q68 331 69 331L103 326L104 318L80 308Q76 306 71.5 304.5Q67 303 63 301Q66 301 68.5 301.0Q71 301 74 301L107 297L108 291L57 297L56 304L92 319Q94 320 95.5 320.5Q97 321 98 321Q96 322 94.5 322.0Q93 322 92 322L53 327L52 334ZM117 258 119 252 91 245Q87 244 84.5 243.5Q82 243 79 243Q77 244 75.0 245.0Q73 246 71 248Q69 249 67.5 252.0Q66 255 65 258Q64 262 64.0 264.5Q64 267 65 270Q66 272 67.0 274.0Q68 276 70 278Q72 279 75.0 280.5Q78 282 82 283L109 289L111 283L83 276Q80 275 78.0 274.5Q76 274 74 273Q73 272 72.0 270.5Q71 269 71 268Q70 266 70.0 264.0Q70 262 71 260Q72 257 73.5 254.5Q75 252 77 251Q79 250 82.0 250.0Q85 250 90 251L117 258ZM75 228 121 246 123 240 104 233 114 209 133 216 135 210 90 192 87 198 109 207 99 230 77 222 75 228ZM92 186 145 192 148 186 114 145 110 152 121 164 111 182 95 180 92 186ZM117 183 124 168 134 179Q136 182 138.0 184.0Q140 186 142 187Q139 186 136.5 185.5Q134 185 132 185L117 183ZM117 140 158 168 162 162 144 119 176 141 180 135 139 108 135 113 153 157 121 135 117 140ZM165 77 201 110 224 85 219 81 201 101 190 91 206 73 201 69 186 87 169 72 165 77ZM208 65Q212 69 216.5 72.0Q221 75 226 75Q230 76 234.5 74.5Q239 73 243 69Q246 67 248.0 64.5Q250 62 251 59Q252 56 252.0 53.0Q252 50 251 47Q250 43 248.5 40.0Q247 37 245 35Q242 32 239.5 30.0Q237 28 234 26Q231 25 228.0 24.5Q225 24 221 25Q218 25 215.5 26.5Q213 28 210 30Q208 32 206.0 35.0Q204 38 203 41Q202 44 202.0 47.0Q202 50 202 53Q203 56 204.5 59.0Q206 62 208 65ZM213 60Q210 57 209.0 53.5Q208 50 208 46Q208 43 209.5 40.0Q211 37 214 35Q217 32 220.0 31.0Q223 30 227 31Q230 31 233.5 33.0Q237 35 240 39Q242 41 243.0 43.5Q244 46 245 48Q246 51 246.0 53.0Q246 55 245 58Q244 60 243.0 62.0Q242 64 240 65Q237 67 234.0 68.0Q231 69 227 69Q224 69 220.5 66.5Q217 64 213 60ZM236 11 265 51 283 39Q285 37 287.0 35.0Q289 33 290 32Q291 30 291.5 28.5Q292 27 292 25Q292 23 291.0 21.0Q290 19 289 17Q288 15 286.0 14.0Q284 13 281 12Q279 12 276.0 12.5Q273 13 270 14Q271 13 271.5 12.0Q272 11 272 10Q272 8 272.5 6.0Q273 4 273 2L272 -14L265 -10L266 2Q266 5 266.0 7.0Q266 9 266 11Q266 12 265.5 13.5Q265 15 265 15Q265 16 264.5 17.0Q264 18 263 18Q263 19 262.0 19.5Q261 20 260 20L254 25L242 7L236 11ZM257 29 269 21Q271 20 272.5 19.0Q274 18 275 18Q277 18 278.0 18.0Q279 18 280 18Q281 19 282.0 19.5Q283 20 284 21Q285 23 285.0 24.5Q285 26 285 27Q285 29 283.5 30.5Q282 32 280 34L267 43L257 29ZM279 -18 303 25 334 8 332 3 306 17 299 4 323 -10 320 -15 296 -1 288 -16 314 -31 311 -36 279 -18ZM322 -40 341 6 347 3 328 -43ZM367 -37 369 -32 389 -39 383 -56Q380 -57 377.0 -57.5Q374 -58 371 -58Q368 -58 365.5 -57.5Q363 -57 361 -56Q357 -55 354.5 -53.0Q352 -51 349 -49Q347 -46 346.0 -43.0Q345 -40 344 -37Q344 -34 344.5 -30.5Q345 -27 346 -24Q347 -20 349.0 -17.0Q351 -14 354 -12Q356 -10 359.0 -8.5Q362 -7 365 -6Q368 -6 371.5 -6.5Q375 -7 378 -8Q381 -9 383.0 -10.5Q385 -12 387 -13Q389 -15 390.0 -16.5Q391 -18 392 -20Q392 -22 392.0 -24.5Q392 -27 392 -29H386Q386 -27 386.0 -25.0Q386 -23 386 -22Q385 -21 384.5 -19.5Q384 -18 382 -17Q381 -16 379.5 -15.0Q378 -14 376 -14Q374 -13 372.5 -12.5Q371 -12 369 -12Q367 -12 365.5 -12.5Q364 -13 363 -14Q361 -14 360.0 -15.0Q359 -16 358 -17Q356 -19 354.5 -21.0Q353 -23 353 -26Q351 -29 350.5 -31.5Q350 -34 351 -37Q351 -39 352.0 -41.5Q353 -44 355 -45Q356 -47 358.0 -48.5Q360 -50 362 -51Q364 -51 366.5 -51.5Q369 -52 371 -52Q373 -52 374.5 -52.0Q376 -52 378 -51L381 -42L367 -37ZM391 -66 401 -17 408 -19 425 -62 433 -24 439 -25 429 -74 423 -72 405 -29 397 -67 391 -66ZM469 -79 471 -30H478L476 -74L500 -75V-81L469 -79ZM503 -82 519 -31H526L549 -79L542 -80L535 -65L515 -66L510 -81L503 -82ZM516 -61 533 -60 527 -46Q526 -43 525.0 -40.5Q524 -38 523 -36Q523 -39 522.5 -41.5Q522 -44 521 -46L516 -61ZM555 -80 548 -31 554 -30 586 -64 580 -26 586 -25 594 -73 587 -75 555 -40 561 -79 555 -80ZM623 -47 621 -42 642 -36 646 -54Q644 -56 642.0 -58.5Q640 -61 638 -62Q636 -64 633.5 -65.0Q631 -66 628 -67Q625 -68 621.5 -68.0Q618 -68 615 -67Q612 -66 609.0 -64.5Q606 -63 604 -61Q602 -58 600.0 -55.0Q598 -52 597 -49Q597 -45 596.5 -41.5Q596 -38 597 -35Q598 -32 599.5 -29.0Q601 -26 603 -24Q605 -22 608.0 -20.0Q611 -18 615 -17Q617 -17 619.5 -16.5Q622 -16 625 -17Q627 -17 629.0 -17.5Q631 -18 632 -20Q634 -21 635.5 -22.5Q637 -24 638 -26L633 -30Q632 -28 631.0 -26.5Q630 -25 629 -24Q628 -24 626.5 -23.5Q625 -23 623 -22Q621 -22 619.5 -22.0Q618 -22 616 -23Q614 -23 612.0 -24.0Q610 -25 609 -26Q608 -27 607.0 -28.5Q606 -30 605 -31Q604 -32 603.5 -33.5Q603 -35 603 -37Q603 -39 603.0 -41.5Q603 -44 604 -47Q605 -50 606.0 -52.5Q607 -55 609 -57Q611 -59 613.0 -60.0Q615 -61 617 -61Q619 -62 621.5 -62.0Q624 -62 627 -61Q629 -61 630.5 -60.0Q632 -59 634 -57Q636 -56 637.0 -55.0Q638 -54 639 -52L637 -44L623 -47ZM671 0 677 2 688 -24Q689 -28 689.5 -31.0Q690 -34 690 -36Q690 -38 689.5 -40.5Q689 -43 687 -45Q685 -47 683.0 -48.5Q681 -50 677 -51Q674 -53 671.0 -53.5Q668 -54 666 -53Q663 -53 661.0 -52.0Q659 -51 657 -49Q656 -47 654.5 -44.5Q653 -42 651 -38L641 -11L647 -9L657 -36Q658 -39 659.5 -41.0Q661 -43 662 -44Q663 -45 664.5 -46.0Q666 -47 667 -47Q669 -47 671.0 -47.0Q673 -47 675 -46Q678 -45 680.0 -43.0Q682 -41 683 -39Q684 -37 683.5 -34.0Q683 -31 681 -27L671 0ZM701 -41 696 12 703 15 743 -21 736 -24 724 -13 705 -22 707 -38 701 -41ZM705 -16 720 -9 709 1Q707 3 705.0 5.0Q703 7 702 9Q702 6 702.5 3.5Q703 1 703 -1L705 -16ZM755 11 752 16 769 28 780 13Q779 10 777.5 7.5Q776 5 775 3Q773 0 771.5 -1.5Q770 -3 767 -5Q764 -7 761.0 -8.5Q758 -10 755 -10Q751 -10 748.0 -9.5Q745 -9 742 -8Q739 -6 736.5 -4.0Q734 -2 732 1Q730 4 728.5 7.5Q727 11 727 14Q726 18 726.5 21.0Q727 24 729 27Q730 30 732.5 32.5Q735 35 738 37Q740 38 742.0 39.0Q744 40 747 41Q749 41 751.0 41.0Q753 41 755 41Q757 40 759.0 39.0Q761 38 763 36L759 32Q757 33 755.5 33.5Q754 34 753 35Q752 35 750.5 35.0Q749 35 747 35Q746 35 744.0 34.0Q742 33 741 32Q739 31 737.5 29.5Q736 28 735 27Q734 25 733.5 23.5Q733 22 733 21Q733 19 733.0 17.5Q733 16 733 15Q734 12 735.0 10.0Q736 8 737 5Q739 3 741.0 1.0Q743 -1 746 -2Q748 -3 750.0 -3.5Q752 -4 755 -4Q757 -4 759.5 -3.0Q762 -2 764 0Q765 1 766.5 2.5Q768 4 770 6Q771 8 771.5 9.5Q772 11 773 12L767 20L755 11ZM793 14 761 52 789 75 792 70 770 51 780 40 801 57 804 53 784 35 794 22 818 42 821 37 793 14ZM816 53 819 58Q821 57 822.5 56.5Q824 56 825 55Q827 55 828.5 55.5Q830 56 832 56Q833 57 834.5 58.0Q836 59 838 61Q839 62 840.0 63.5Q841 65 842 66Q842 68 842.5 69.0Q843 70 842 71Q842 73 841.5 74.0Q841 75 840 75Q840 76 839.0 76.5Q838 77 836 77Q835 77 834.0 77.0Q833 77 831 76Q830 76 828.0 74.5Q826 73 823 71Q820 69 818.0 68.0Q816 67 815 67Q813 66 811.0 66.0Q809 66 808 66Q806 66 804.5 67.0Q803 68 802 69Q801 70 800.0 72.0Q799 74 798 75Q798 77 798.0 79.0Q798 81 799 83Q800 85 801.0 87.0Q802 89 804 91Q806 93 808.0 94.5Q810 96 812 97Q814 98 816.0 98.0Q818 98 820 98Q823 97 824.5 96.5Q826 96 828 94L824 89Q822 91 820.0 91.5Q818 92 816 92Q814 92 812.5 90.5Q811 89 809 87Q807 85 805.5 83.0Q804 81 804 80Q804 78 804.5 76.5Q805 75 806 74Q807 73 808.0 72.5Q809 72 811 72Q812 72 814.0 73.5Q816 75 820 77Q823 79 825.5 80.5Q828 82 830 83Q832 83 834.0 83.5Q836 84 838 84Q840 83 841.5 82.5Q843 82 844 80Q846 79 847.0 77.0Q848 75 848 73Q849 71 848.5 69.0Q848 67 848 65Q847 63 845.5 61.0Q844 59 842 57Q840 54 837.5 52.5Q835 51 833 50Q831 49 828.5 49.0Q826 49 824 49Q822 49 819.5 50.5Q817 52 816 53ZM865 107 868 112Q870 111 871.5 110.5Q873 110 875 110Q876 110 877.5 110.5Q879 111 881 112Q882 113 883.5 114.5Q885 116 886 118Q887 119 887.5 121.0Q888 123 889 124Q889 126 889.0 127.0Q889 128 889 129Q888 130 887.5 131.0Q887 132 886 133Q885 133 884.0 133.5Q883 134 882 134Q881 134 879.5 133.5Q878 133 877 132Q876 131 874.5 129.5Q873 128 870 126Q867 124 865.0 122.0Q863 120 862 120Q860 119 858.5 118.5Q857 118 855 118Q854 118 852.5 118.5Q851 119 849 120Q848 121 846.5 122.5Q845 124 845 126Q844 127 843.5 129.0Q843 131 844 134Q844 136 845.0 138.0Q846 140 848 142Q849 144 851.0 146.0Q853 148 854 149Q856 150 858.0 151.0Q860 152 862 152Q864 152 866.0 151.0Q868 150 870 149L867 144Q865 145 863.0 145.0Q861 145 859 145Q858 144 856.0 142.5Q854 141 853 139Q851 137 850.0 134.5Q849 132 849 131Q850 129 850.5 127.5Q851 126 852 125Q853 125 854.5 124.5Q856 124 857 125Q858 125 860.5 126.5Q863 128 865 131Q868 134 870.5 135.5Q873 137 874 138Q876 139 878.0 140.0Q880 141 882 141Q884 141 885.5 140.0Q887 139 889 138Q891 137 892.0 135.5Q893 134 894 132Q895 130 895.0 128.0Q895 126 895 124Q894 122 893.5 119.5Q893 117 891 115Q889 112 887.0 110.0Q885 108 883 107Q881 105 879.0 104.5Q877 104 874 104Q872 104 869.5 104.5Q867 105 865 107ZM908 177 912 182Q915 180 917.0 176.5Q919 173 919 170Q920 167 919.5 163.5Q919 160 917 157Q915 153 913.0 150.5Q911 148 908 147Q905 145 902.5 144.5Q900 144 896 144Q893 145 889.5 146.0Q886 147 883 148Q880 150 877.5 152.0Q875 154 873 157Q871 160 870.0 163.0Q869 166 869 169Q869 172 869.5 175.0Q870 178 872 181Q874 184 876.0 186.5Q878 189 881 190Q884 191 887.0 191.5Q890 192 894 191L892 185Q889 185 887.0 185.0Q885 185 883 184Q881 183 879.5 181.5Q878 180 877 178Q875 175 874.5 173.0Q874 171 875 168Q875 166 876.0 164.0Q877 162 879 160Q880 158 882.0 156.5Q884 155 886 154Q889 153 891.5 152.0Q894 151 897 151Q899 150 901.5 150.5Q904 151 906 152Q908 154 909.5 155.5Q911 157 912 159Q913 161 913.5 163.5Q914 166 913 168Q913 171 911.5 173.0Q910 175 908 177ZM930 183 885 202 887 208 906 200 915 224 897 232 899 238 945 219 943 213 921 222 911 198 933 189 930 183ZM926 236Q920 237 916.0 240.0Q912 243 909 248Q907 252 906.5 256.5Q906 261 908 266Q909 269 910.5 272.0Q912 275 915 277Q917 279 920.0 280.5Q923 282 926 282Q929 283 932.5 282.5Q936 282 939 281Q943 280 946.0 278.0Q949 276 951 274Q954 272 955.5 269.0Q957 266 957 263Q958 260 958.0 257.0Q958 254 957 251Q956 248 954.0 245.0Q952 242 950 240Q947 238 944.5 236.5Q942 235 939 235Q935 234 932.0 234.5Q929 235 926 236ZM928 242Q932 241 936.0 241.0Q940 241 943 242Q946 244 948.0 246.5Q950 249 951 253Q953 256 952.5 259.5Q952 263 950 266Q948 269 945.0 271.0Q942 273 937 275Q934 275 931.5 275.5Q929 276 927 276Q924 275 922.0 274.5Q920 274 918 272Q916 271 915.0 269.0Q914 267 913 264Q912 261 912.5 258.0Q913 255 914 251Q916 248 919.5 246.0Q923 244 928 242ZM941 285Q935 285 930.0 287.5Q925 290 922 294Q919 298 918.0 302.0Q917 306 918 312Q918 315 919.5 318.0Q921 321 923 323Q925 326 927.5 327.5Q930 329 933 331Q936 332 939.5 332.0Q943 332 947 332Q950 331 953.5 330.0Q957 329 960 327Q962 325 964.0 322.5Q966 320 967 317Q968 314 968.5 311.0Q969 308 969 305Q968 301 967.0 298.0Q966 295 964 293Q962 290 959.0 288.5Q956 287 953 286Q950 285 947.0 284.5Q944 284 941 285ZM942 291Q946 291 949.5 291.5Q953 292 956 294Q959 296 961.0 299.0Q963 302 963 305Q964 309 963.0 312.0Q962 315 960 318Q957 321 953.5 322.5Q950 324 946 325Q943 325 940.0 325.0Q937 325 935 324Q933 324 931.0 322.5Q929 321 927 319Q926 318 925.0 315.5Q924 313 924 311Q923 307 924.0 304.0Q925 301 927 298Q929 296 932.5 294.0Q936 292 942 291ZM973 337 924 339V345L968 344L969 368H974Z"/></svg>